<svg
     xmlns:dc="http://purl.org/dc/elements/1.1/"
   xmlns:cc="http://creativecommons.org/ns#"
   xmlns:rdf="http://www.w3.org/1999/02/22-rdf-syntax-ns#"
   xmlns:svg="http://www.w3.org/2000/svg"
   xmlns="http://www.w3.org/2000/svg"
   xmlns:sodipodi="http://sodipodi.sourceforge.net/DTD/sodipodi-0.dtd"
   xmlns:inkscape="http://www.inkscape.org/namespaces/inkscape"
   width="210mm"
   height="297mm"
   viewBox="0 0 1543.4268 320.00026"
   version="1.1"
   id="svg2"
   inkscape:version="0.92.4 (5da689c313, 2019-01-14)"
   sodipodi:docname="GermLogo3.svg">
  <defs
     id="defs4664" />
  <sodipodi:namedview
     id="base"
     pagecolor="#ffffff"
     bordercolor="#666666"
     borderopacity="1.0"
     inkscape:pageopacity="0.0"
     inkscape:pageshadow="2"
     inkscape:zoom="1.979899"
     inkscape:cx="328.2475"
     inkscape:cy="1088.1532"
     inkscape:document-units="mm"
     inkscape:current-layer="layer1"
     showgrid="false"
     inkscape:pagecheckerboard="true"
     inkscape:window-width="2560"
     inkscape:window-height="1027"
     inkscape:window-x="4472"
     inkscape:window-y="-8"
     inkscape:window-maximized="1" />
  <metadata
     id="metadata4667">
    <rdf:RDF>
      <cc:Work
         rdf:about="">
        <dc:format>image/svg+xml</dc:format>
        <dc:type
           rdf:resource="http://purl.org/dc/dcmitype/StillImage" />
        <dc:title></dc:title>
      </cc:Work>
    </rdf:RDF>
  </metadata>
  <g
     inkscape:label="Layer 1"
     inkscape:groupmode="layer"
     id="layer1">
    <g
       id="g4735"
       transform="translate(-57.329314,-59.601105)">
      <path
         style="fill:#9fa19b;stroke-width:0.26458338"
         d="m 109.25663,112.14003 c -3.66128,-4.15943 -6.96999,-7.76785 -7.35272,-8.01872 -0.6944,-0.45516 -1.45167,-0.50735 -4.980078,-0.34318 l -1.614564,0.0751 -0.575715,1.62575 c -0.939199,2.65219 -1.152067,2.70372 -0.98771,0.23911 l 0.145407,-2.18039 -0.794674,-0.41095 c -0.742556,-0.38399 -0.859131,-0.37366 -1.777471,0.15746 -0.540535,0.31262 -1.816232,1.54397 -2.834878,2.73634 -8.931478,10.45469 -10.715627,12.3258 -10.715627,11.23798 0,-0.16348 1.464505,-2.27684 3.254451,-4.69635 4.320995,-5.84078 6.95741,-9.55743 7.451024,-10.504 0.470588,-0.90241 0.533781,-2.821168 0.118475,-3.597181 C 88.433845,98.16448 88.201258,97.190046 88.075684,96.2956 87.899736,95.042364 87.68944,94.532796 87.158855,94.074032 86.78017,93.746613 86.36102,93.478719 86.227406,93.478719 c -0.133649,0 -0.275797,1.806472 -0.315974,4.01559 l -0.07304,4.015581 -1.852083,1.01225 c -1.018646,0.55673 -2.804583,1.33329 -3.96875,1.72568 -1.920927,0.64747 -2.483678,0.714 -6.085417,0.7194 -3.669361,0.005 -4.128425,-0.0497 -6.085417,-0.73211 -3.824353,-1.33353 -6.114013,-3.27691 -7.629388,-6.475535 -0.801072,-1.690888 -0.83728,-1.910334 -0.83728,-5.074605 0,-3.030032 0.06178,-3.451465 0.736908,-5.02708 0.976917,-2.279926 0.980306,-2.167957 -0.07545,-2.493013 -1.197174,-0.368594 -1.5875,-0.630738 -1.5875,-1.066173 0,-0.587818 0.636136,-0.647261 2.21723,-0.207186 l 1.50527,0.418969 1.115312,-1.084597 c 3.669809,-3.568745 12.728257,-4.340818 18.133664,-1.545574 1.222393,0.632125 2.601957,2.111118 3.354591,3.596369 0.914731,1.805135 0.8646,2.004015 -0.595337,2.361755 -0.691223,0.169378 -1.459899,0.368469 -1.708168,0.442426 -0.333436,0.09933 -0.622853,-0.20388 -1.107488,-1.160259 -1.375206,-2.713837 -3.705964,-3.890855 -7.701532,-3.889224 -1.309688,5.3e-4 -2.998955,0.158854 -3.753926,0.351822 -1.28033,0.327247 -3.979031,1.789295 -3.74139,2.026935 0.333841,0.333841 14.4357,4.064755 18.964499,5.017419 3.220178,0.677383 3.588406,0.606716 5.353492,-1.027446 1.623944,-1.503485 3.785346,-2.531116 5.346105,-2.541786 0.467484,-0.0032 1.34267,-0.22954 1.944859,-0.502984 1.369386,-0.621816 2.21306,-2.082279 9.085324,-15.727356 2.70187,-5.364623 5.02897,-9.761468 5.17135,-9.770768 0.6473,-0.04228 0.27497,1.172865 -1.74171,5.684305 -4.83044,10.805902 -8.45048,19.711907 -8.45048,20.789785 0,1.007055 0.23372,1.649495 0.60007,1.649495 0.37531,0 3.49658,-2.370011 6.3919,-4.853414 2.17995,-1.869817 3.06221,-2.385837 3.06221,-1.791037 0,0.129094 -1.43923,1.647141 -3.19827,3.373439 -1.75904,1.726295 -3.54427,3.571676 -3.96717,4.100843 l -0.76891,0.96212 0.54482,1.23167 c 0.29965,0.677415 0.62637,1.970865 0.72603,2.874335 0.17904,1.623119 0.19537,1.649815 1.37182,2.243167 l 1.19063,0.600498 0.0716,-5.296855 0.0716,-5.29685 h 1.71432 1.71431 l 0.003,1.124479 0.003,1.12448 0.68344,-0.86723 c 0.87073,-1.104887 2.44687,-1.911311 3.73192,-1.909419 1.20202,0.0019 2.69927,0.391176 3.35907,0.873638 0.45801,0.334902 0.44839,0.412885 -0.21161,1.715331 -0.64812,1.278996 -0.73389,1.348338 -1.36916,1.10681 -1.01048,-0.384183 -2.94675,-0.311486 -3.82694,0.143682 -1.36107,0.703834 -1.68621,1.715061 -1.79558,5.584476 l -0.0982,3.472286 1.14963,0.410604 c 0.89777,0.320653 4.86486,1.927443 8.09494,3.278703 0.2604,0.10893 0.33073,-1.58386 0.33073,-7.959743 V 87.12872 h 1.71979 1.71979 v 0.942483 0.94248 l 1.14518,-0.822407 c 3.0707,-2.205206 7.93074,-2.10548 10.01865,0.205579 l 0.90391,1.000525 1.26353,-1.000856 c 3.13917,-2.486572 8.33795,-2.336413 10.56058,0.305028 1.07948,1.282885 1.28363,2.960195 1.19332,9.804252 l -0.082,6.217706 h -1.85209 -1.85208 l -0.13229,-6.746873 c -0.0728,-3.710784 -0.2308,-6.946037 -0.3512,-7.189459 -0.64343,-1.30092 -3.78131,-1.673805 -5.73825,-0.681895 -2.11088,1.06994 -2.23228,1.518227 -2.32866,8.598958 l -0.0837,6.151559 h -1.83449 -1.83449 l -0.006,-6.019267 c -0.007,-6.415257 -0.16764,-7.766029 -1.02762,-8.626007 -0.85313,-0.853133 -3.50934,-0.917578 -5.03599,-0.122184 -2.31959,1.208529 -2.66131,2.457172 -2.66131,9.724474 v 4.938954 l 3.22327,1.30879 c 3.09266,1.25575 4.1239,1.97024 2.8437,1.97024 -0.32544,0 -4.68879,-1.48828 -9.69634,-3.30729 -5.00754,-1.81901 -9.21036,-3.30729 -9.33959,-3.30729 -0.12923,0 -0.27041,0.74414 -0.31373,1.65365 l -0.0788,1.65364 h -1.85209 -1.85208 l -0.0756,-2.41431 -0.0756,-2.414305 -1.49109,-0.570605 c -1.72902,-0.66166 -1.9191,-0.539168 -1.92546,1.24083 -0.007,1.94265 1.74828,4.77348 8.2621,13.32511 2.14528,2.81643 3.90774,5.23984 3.91658,5.38536 0.0669,1.10171 -1.45878,-0.36593 -7.41762,-7.13556 z M 78.884834,101.0918 c 3.065611,-1.142043 3.117102,-1.202339 3.117102,-3.650428 V 95.330804 H 77.7686 73.535267 v -1.5875 -1.5875 l 4.431771,-0.01992 4.431773,-0.01992 -3.70417,-1.213731 c -2.037291,-0.667546 -5.906822,-1.894342 -8.598957,-2.7262 -4.862036,-1.502352 -4.897903,-1.508935 -5.359576,-0.983814 -0.702297,0.798812 -1.347913,3.298892 -1.350116,5.22818 -0.0054,4.73896 1.840778,7.422478 6.14248,8.928361 2.430686,0.8509 6.697056,0.73373 9.356362,-0.25695 z m 22.594686,13.67879 c -0.23517,-0.23517 -0.42758,-0.52964 -0.42758,-0.65437 0,-0.3675 0.83081,-1.09008 1.13628,-0.98825 0.55575,0.18525 0.86107,0.96339 0.56325,1.43552 -0.40179,0.63697 -0.78043,0.69862 -1.27195,0.2071 z m 0.76304,-0.91895 c -0.12801,-0.20713 -0.28021,-0.2225 -0.4566,-0.0461 -0.14552,0.14552 -0.17817,0.40439 -0.0726,0.57527 0.12801,0.20713 0.28021,0.2225 0.4566,0.0461 0.14552,-0.14552 0.17817,-0.40439 0.0726,-0.57527 z m -2.989791,-6.40292 c -0.474461,-0.47446 -0.383119,-1.65777 0.166354,-2.15503 1.321227,-1.1957 3.015867,0.34786 2.152667,1.96076 -0.31396,0.58664 -1.801996,0.71129 -2.319021,0.19427 z m 1.981871,-0.6445 c 0.24057,-0.62693 -0.27315,-1.28696 -1.00167,-1.28696 -0.647805,0 -0.948753,0.60394 -0.666924,1.33837 0.201134,0.52415 1.462644,0.48527 1.668594,-0.0514 z M 90.298475,85.284561 c -2.237306,-0.925346 -1.582735,-4.347092 0.831586,-4.347092 1.914183,0 2.924156,2.231086 1.653645,3.652995 -0.680598,0.761698 -1.660257,1.035307 -2.485231,0.694097 z m 2.195891,-1.017656 c 0.506989,-0.666909 0.423677,-1.832495 -0.17368,-2.429853 -0.602777,-0.602775 -1.106607,-0.661335 -1.935626,-0.224974 -0.75982,0.399939 -0.965843,0.738415 -0.970743,1.594833 -0.0087,1.515072 2.165326,2.26325 3.080049,1.059994 z"
         id="path3839"
         inkscape:connector-curvature="0" />
      <path
         style="fill:#abcc4a;stroke-width:0.26458338"
         d="m 109.16416,111.88253 c -5.0708,-5.79102 -7.03768,-7.86034 -7.66511,-8.06432 -1.01985,-0.33156 -1.855079,-0.3679 -4.283573,-0.18639 l -1.852083,0.13844 -0.7303,1.78019 c -0.401664,0.9791 -0.768938,1.81883 -0.816166,1.86605 -0.04722,0.0472 -0.03189,-0.84651 0.03408,-1.98607 l 0.119945,-2.07193 -0.854596,-0.35398 c -1.606386,-0.66539 -1.715313,-0.56236 -11.595534,10.96768 -1.50154,1.75227 -2.892587,3.27689 -3.091217,3.38805 -0.906497,0.5073 -0.513384,-0.44863 1.021095,-2.48297 3.870108,-5.13084 8.731917,-12.02745 9.190183,-13.03655 0.597813,-1.31637 0.622004,-1.931463 0.122931,-3.125919 -0.210029,-0.502666 -0.464111,-1.559007 -0.564621,-2.347415 -0.230417,-1.807353 -0.46405,-2.254409 -1.442601,-2.76044 l -0.785907,-0.406408 v 4.043617 4.043615 l -1.207874,0.72958 c -3.389428,2.04729 -6.653185,2.93033 -10.83067,2.93033 -7.695877,0 -12.723324,-3.23601 -14.324184,-9.220011 -0.7386,-2.760885 -0.271807,-6.624117 1.096119,-9.071602 l 0.635671,-1.137341 -0.660785,-0.251227 C 60.315532,85.12933 59.734388,84.945051 59.387534,84.857997 58.6552,84.674191 58.296613,83.997514 58.824249,83.79504 c 0.198722,-0.07626 1.020256,0.03343 1.825631,0.243739 l 1.46432,0.382389 0.881888,-0.910683 c 2.581837,-2.666136 9.406925,-4.187763 14.197903,-3.165368 2.430206,0.518606 4.677293,1.533615 5.824088,2.63074 0.790688,0.756447 2.423437,3.518665 2.423437,4.099878 0,0.216331 -2.277036,0.846735 -3.058435,0.846735 -0.204726,0 -0.670158,-0.58793 -1.03429,-1.30651 -0.364136,-0.718581 -1.076868,-1.622898 -1.583855,-2.009597 -2.871278,-2.19003 -9.176412,-2.279962 -12.503108,-0.178335 -0.623628,0.393975 -1.094697,0.83538 -1.046821,0.980901 0.101088,0.307263 2.946028,1.130617 11.421302,3.305439 7.048115,1.808605 10.107643,2.419739 11.003745,2.197979 0.350858,-0.08683 1.151614,-0.68611 1.779458,-1.331736 1.35482,-1.39319 3.438599,-2.411124 5.386482,-2.631315 2.661624,-0.300874 2.966046,-0.596017 5.576806,-5.406859 1.29407,-2.384576 4.16003,-7.993237 6.3688,-12.463693 3.52029,-7.124872 4.67743,-9.057085 4.67743,-7.810449 0,0.183328 -0.75845,1.999032 -1.68543,4.034896 -4.19312,9.208991 -9.1625,21.266404 -9.1625,22.231331 0,0.32665 0.20836,0.850379 0.46302,1.163842 l 0.46302,0.569933 1.19063,-0.860666 c 0.65484,-0.473366 2.64762,-2.085863 4.42842,-3.583331 1.78078,-1.497464 3.29883,-2.722663 3.37344,-2.722663 0.57632,0 -0.38899,1.147678 -3.72858,4.432964 -4.18098,4.113012 -4.02565,3.819089 -3.18039,6.018078 0.22374,0.582083 0.41385,1.594114 0.42246,2.248958 0.0187,1.422855 0.12996,1.619067 1.33048,2.346965 1.87654,1.137769 1.85209,1.200174 1.85209,-4.728215 V 87.12872 h 1.5875 1.5875 v 1.175224 1.175224 l 1.12448,-1.189033 c 1.45912,-1.542886 2.75531,-1.879536 5.01135,-1.301564 0.8689,0.222604 1.62974,0.404733 1.69075,0.404733 0.23095,0 0.0948,0.695645 -0.3521,1.799357 -0.43785,1.081296 -0.50617,1.132541 -1.25677,0.942583 -1.53637,-0.38881 -3.23354,-0.253899 -4.01754,0.319363 -1.33244,0.974283 -1.74231,2.235615 -1.87788,5.778929 l -0.12237,3.198309 4.43321,1.819925 c 2.43826,1.00096 4.65547,1.87805 4.92712,1.94909 0.47423,0.12401 0.49392,-0.19381 0.49392,-7.97149 v -8.10065 h 1.71979 1.71979 v 1.107835 1.107834 l 0.72761,-0.696772 c 1.31457,-1.258875 3.13286,-1.879595 5.4901,-1.874184 2.50087,0.0057 3.77863,0.468577 5.0681,1.835811 l 0.89387,0.947777 0.97432,-0.855464 c 1.6111,-1.414563 3.09068,-1.933546 5.49913,-1.928905 2.66793,0.0051 4.33548,0.716137 5.38035,2.294017 l 0.70506,1.064733 0.0781,7.229909 0.0781,7.229909 h -1.71883 -1.71882 l -0.0791,-6.595843 c -0.0745,-6.217409 -0.1109,-6.638422 -0.63359,-7.337893 -1.09339,-1.463175 -4.19594,-1.73369 -5.97662,-0.521107 -1.90531,1.297448 -1.92691,1.385977 -2.01527,8.255823 l -0.0797,6.19902 h -1.83849 -1.8385 l -0.004,-6.416146 c -0.004,-6.900841 -0.063,-7.246567 -1.40085,-8.239945 -1.06645,-0.791853 -3.40792,-0.73148 -4.94801,0.127577 -2.04449,1.140431 -2.22532,1.806662 -2.37849,8.76291 l -0.1323,6.008364 3.11002,1.22866 c 2.99192,1.18202 3.61694,1.54712 3.25984,1.90422 -0.18787,0.18787 -0.0636,0.22969 -8.08964,-2.72163 -9.38255,-3.4501 -11.17726,-4.09359 -11.41719,-4.09359 -0.12346,0 -0.22448,0.7739 -0.22448,1.71979 v 1.71979 h -1.70988 -1.70985 l -0.0761,-2.42521 -0.0761,-2.425197 -1.32293,-0.464707 c -2.04988,-0.720074 -2.19061,-0.678555 -2.39847,0.707538 -0.1602,1.068266 -0.0666,1.439796 0.78341,3.108856 1.06519,2.09164 4.01246,6.29705 8.56265,12.21787 2.63874,3.4336 3.16829,4.3621 2.48784,4.3621 -0.10484,0 -3.26013,-3.50547 -7.01174,-7.78994 z M 78.266865,101.36691 c 0.96288,-0.29671 2.197177,-0.7666 2.74288,-1.04421 l 0.992191,-0.504735 V 97.442094 95.06622 H 77.7686 73.535267 v -1.322916 -1.322917 l 3.108854,-0.03785 c 1.709869,-0.02082 3.733934,-0.04511 4.497916,-0.05399 0.763985,-0.0089 1.389065,-0.0887 1.389065,-0.177397 0,-0.0887 -1.994297,-0.791758 -4.431772,-1.56236 -2.437474,-0.770601 -5.443803,-1.731026 -6.68073,-2.134274 -1.236927,-0.403252 -3.181725,-0.994619 -4.321773,-1.314151 -1.99979,-0.560502 -2.085711,-0.563949 -2.438853,-0.09787 -1.345107,1.775294 -1.759483,6.585972 -0.804359,9.338175 1.627857,4.69069 8.103016,6.93077 14.41325,4.98625 z M 101.364,114.5703 c -0.41543,-0.50056 0.20743,-1.33945 0.89605,-1.20683 0.73782,0.14209 0.70395,1.38674 -0.0406,1.49312 -0.30378,0.0434 -0.68871,-0.0854 -0.85541,-0.28629 z m 1.14314,-0.45408 c 0,-0.2143 -0.20836,-0.42975 -0.46302,-0.4788 -0.32487,-0.0626 -0.46302,0.0803 -0.46302,0.4788 0,0.3985 0.13815,0.54136 0.46302,0.4788 0.25466,-0.049 0.46302,-0.26451 0.46302,-0.4788 z m -3.165347,-6.86851 c -0.971428,-1.07341 0.270775,-2.77101 1.588367,-2.17067 0.82976,0.37806 1.05655,1.24392 0.53449,2.04067 -0.51615,0.78776 -1.474487,0.84644 -2.122857,0.13 z m 1.822517,-0.25323 c 0.90501,-1.00002 -0.6887,-2.25026 -1.646958,-1.29201 -0.431207,0.43121 -0.398883,0.88624 0.09827,1.38339 0.550548,0.55055 0.991278,0.52454 1.548678,-0.0914 z m -11.34,-22.13535 c -1.154231,-1.154231 -1.141328,-2.530366 0.03181,-3.392057 0.967605,-0.710728 2.198235,-0.611269 2.927591,0.236607 0.741715,0.86224 0.757941,1.80767 0.04813,2.804509 -0.442198,0.621012 -0.743153,0.768448 -1.5686,0.768448 -0.57758,0 -1.202839,-0.18142 -1.438924,-0.417507 z m 2.437503,-0.258953 c 1.230159,-0.861639 0.431435,-3.292291 -1.081863,-3.292291 -0.851315,0 -1.770493,0.935114 -1.765633,1.796244 0.0048,0.843309 0.201705,1.183312 0.921994,1.59176 0.72822,0.412951 1.235265,0.387747 1.925502,-0.09571 z"
         id="path3837"
         inkscape:connector-curvature="0" />
      <path
         style="fill:#a5ce34;stroke-width:0.26458338"
         d="m 109.16416,111.88253 c -5.0708,-5.79102 -7.03768,-7.86034 -7.66511,-8.06432 -1.01985,-0.33156 -1.855079,-0.3679 -4.283573,-0.18639 l -1.852083,0.13844 -0.7303,1.78019 c -0.401664,0.9791 -0.768938,1.81883 -0.816166,1.86605 -0.04722,0.0472 -0.03189,-0.84651 0.03408,-1.98607 l 0.119944,-2.07193 -0.837057,-0.34672 c -0.985997,-0.40841 -1.599526,-0.19845 -2.991528,1.02374 -0.506293,0.44453 -0.976114,0.75266 -1.044045,0.68473 -0.06793,-0.0679 -0.472017,0.2622 -0.89797,0.73363 l -0.774462,0.85713 0.859896,-0.77711 c 1.525945,-1.37902 0.918983,-0.43861 -1.539973,2.386 -2.154706,2.47512 -3.007566,3.32163 -2.469658,2.45127 0.114319,-0.18497 0.07285,-0.23381 -0.105121,-0.12381 -0.16165,0.0999 -0.236823,0.33039 -0.167055,0.51221 0.06977,0.18181 -0.306314,0.74355 -0.83574,1.2483 -0.823092,0.78473 -0.936424,0.83145 -0.782034,0.32241 0.116409,-0.38382 0.06926,-0.59531 -0.132705,-0.59531 -0.197757,0 -0.262842,0.26373 -0.176519,0.7153 0.113236,0.59235 -0.156975,1.05814 -1.572194,2.71015 -0.939911,1.09717 -1.872594,2.08645 -2.072627,2.1984 -0.975088,0.54568 -0.445511,-0.53223 1.607728,-3.2724 1.241679,-1.6571 2.291863,-2.95338 2.333739,-2.88062 0.04188,0.0728 0.261456,-0.0215 0.487952,-0.20948 0.278212,-0.23089 0.456637,-0.25021 0.549987,-0.0595 0.076,0.15524 0.103666,0.13044 0.06148,-0.0551 -0.04218,-0.18554 0.03685,-0.57547 0.175638,-0.86651 0.14165,-0.29706 -0.04394,-0.181 -0.423116,0.26458 -0.894395,1.05106 -0.887426,0.61454 0.0089,-0.56067 0.386887,-0.50723 0.777931,-0.80169 0.86899,-0.65436 0.09355,0.15136 0.32395,0.0136 0.529706,-0.31687 0.332613,-0.53413 0.326099,-0.55332 -0.07524,-0.22164 -0.601298,0.49694 -0.55159,0.14073 0.110016,-0.78841 0.302168,-0.42436 0.651129,-0.70868 0.775468,-0.63184 0.124338,0.0769 0.302053,0.0168 0.394925,-0.1335 0.09287,-0.15027 0.298087,-0.19334 0.456038,-0.0957 0.176707,0.10921 0.210595,0.0536 0.08809,-0.14465 -0.1095,-0.17717 -0.02694,-0.52299 0.183457,-0.76848 0.471104,-0.54967 0.797042,-1.10781 0.64693,-1.10781 -0.06156,0 -0.44346,0.47841 -0.848669,1.06312 -0.405212,0.58473 -0.791192,1.00869 -0.857735,0.94214 -0.223967,-0.22396 1.597298,-2.51944 1.866808,-2.35287 0.154818,0.0957 0.184459,0.0318 0.07068,-0.15227 -0.252754,-0.40896 0.312951,-1.09627 0.760849,-0.9244 0.188865,0.0725 0.42101,-0.0705 0.515879,-0.31773 0.151397,-0.39453 0.117158,-0.40448 -0.279979,-0.0814 -0.405033,0.32955 -0.42953,0.31267 -0.233657,-0.16101 1.058416,-2.55964 1.076947,-2.68361 0.600668,-4.018501 -0.249838,-0.700244 -0.530635,-1.868482 -0.623988,-2.596084 -0.09336,-0.727604 -0.297849,-1.561044 -0.45443,-1.852086 -0.156583,-0.291039 -0.288914,-0.608541 -0.294068,-0.705553 -0.0052,-0.09701 -0.117764,-0.275609 -0.250235,-0.396878 -0.139936,-0.128101 -0.161108,-0.08191 -0.05053,0.110247 0.231611,0.402465 0.02708,0.420295 -0.652047,0.05684 -0.495597,-0.265239 -0.511766,-0.146066 -0.511766,3.772242 v 4.046123 l -1.20787,0.72958 c -3.389432,2.0473 -6.653186,2.93033 -10.830671,2.93033 -7.695877,0 -12.723325,-3.236 -14.324185,-9.220008 -0.7386,-2.760885 -0.271807,-6.624117 1.096119,-9.071602 l 0.635725,-1.137341 -0.660785,-0.25123 c -0.36344,-0.138181 -0.944584,-0.322461 -1.291438,-0.409514 -0.732334,-0.183806 -1.090921,-0.860483 -0.563285,-1.062956 0.198722,-0.07626 1.020256,0.03343 1.825631,0.243737 l 1.46432,0.382389 0.881888,-0.910682 c 2.581848,-2.666136 9.406936,-4.187762 14.197914,-3.165368 2.430206,0.518606 4.677293,1.533615 5.824088,2.63074 0.790688,0.756448 2.423437,3.518664 2.423437,4.099877 0,0.216331 -2.277036,0.846736 -3.058435,0.846736 -0.204726,0 -0.670158,-0.587931 -1.03429,-1.30651 -0.364136,-0.718582 -1.076868,-1.622899 -1.583855,-2.009598 -2.871278,-2.190029 -9.176412,-2.279961 -12.503108,-0.178334 -0.623628,0.393975 -1.094697,0.835382 -1.046821,0.9809 0.101088,0.307263 2.946028,1.130618 11.421302,3.30544 9.362174,2.402408 10.965221,2.626217 12.060014,1.683752 0.230087,-0.198075 0.498938,-0.279545 0.597445,-0.181041 0.0985,0.0985 -0.127741,0.380384 -0.502769,0.626399 -0.65486,0.429582 -0.66017,0.452974 -0.134062,0.590558 0.301297,0.07879 0.500613,0.06506 0.442926,-0.03051 -0.145984,-0.241848 0.540224,-0.840126 0.73742,-0.642927 0.08827,0.08826 0.160483,0.06447 0.160483,-0.05288 0,-0.11735 -0.208356,-0.375832 -0.463018,-0.5744 -0.431115,-0.336155 -0.408329,-0.408212 0.330729,-1.045707 1.183235,-1.020635 3.349673,-1.958438 4.940517,-2.138638 0.775216,-0.08781 1.846797,-0.378685 2.381295,-0.646393 0.690655,-0.345919 1.001932,-0.396377 1.075923,-0.174405 0.0622,0.1866 0.175694,0.125793 0.281929,-0.151051 0.106321,-0.277069 0.07265,-0.398388 -0.08374,-0.301736 -0.437838,0.270598 -0.30965,-0.05024 0.953389,-2.38622 0.71237,-1.31752 1.33125,-2.175153 1.49609,-2.073273 0.16156,0.09985 0.20388,0.04875 0.0995,-0.12014 -0.1935,-0.313097 2.15463,-5.229648 2.38678,-4.997488 0.0755,0.07547 0.002,0.415307 -0.16339,0.755191 -0.28905,0.594196 -0.28456,0.597907 0.11669,0.0964 0.22952,-0.286867 0.35763,-0.677081 0.2847,-0.867144 -0.15558,-0.405435 1.9883,-4.850776 2.25878,-4.683605 0.10101,0.06243 0.16733,-0.03404 0.14738,-0.214378 -0.0645,-0.583171 4.69562,-10.249756 5.04731,-10.249756 0.50786,0 0.41436,0.664816 -0.28964,2.059317 -0.71656,1.419395 -5.65232,12.705659 -7.16741,16.389261 -0.55227,1.342708 -1.106,2.378321 -1.23052,2.301361 -0.12453,-0.07696 -0.16577,0.01808 -0.0917,0.211192 0.0741,0.193114 -0.28445,1.418869 -0.79679,2.723902 -1.05581,2.689397 -1.12284,3.272919 -0.46849,4.078359 l 0.46302,0.569936 1.19063,-0.860669 c 0.65484,-0.473363 2.64762,-2.085863 4.42842,-3.583331 1.78078,-1.497463 3.29883,-2.722661 3.37344,-2.722661 0.57632,0 -0.38899,1.147677 -3.72858,4.432962 -4.18098,4.113012 -4.02565,3.819089 -3.1804,6.018078 0.22375,0.582086 0.41386,1.594114 0.42247,2.248961 0.0187,1.422855 0.12995,1.619064 1.33049,2.346962 1.87653,1.137769 1.85208,1.200177 1.85208,-4.728212 v -5.29167 h 1.5875 1.5875 v 1.175227 1.175223 l 1.12448,-1.189032 c 1.45912,-1.542886 2.75531,-1.879537 5.01135,-1.301565 0.8689,0.222605 1.62974,0.404733 1.69075,0.404733 0.23095,0 0.0948,0.695645 -0.3521,1.799357 -0.43785,1.081297 -0.50617,1.132541 -1.25677,0.942584 -1.53637,-0.388811 -3.23353,-0.2539 -4.01753,0.319363 -1.33245,0.974283 -1.74232,2.235615 -1.87789,5.778928 l -0.12237,3.19831 4.43321,1.81993 c 2.43826,1.00095 4.65547,1.87804 4.92712,1.94908 0.47423,0.12402 0.49392,-0.1938 0.49392,-7.971485 v -8.10065 h 1.71979 1.71979 v 1.107834 1.107832 l 0.72761,-0.696772 c 1.31457,-1.258875 3.13286,-1.879593 5.4901,-1.874184 2.50087,0.0057 3.77863,0.468577 5.0681,1.835814 l 0.89387,0.947777 0.97432,-0.855467 c 1.6111,-1.41456 3.09068,-1.933546 5.49913,-1.928902 2.66793,0.0051 4.33548,0.716134 5.38035,2.294017 l 0.70506,1.06473 0.0781,7.229909 0.0781,7.229907 h -1.71883 -1.71882 l -0.0791,-6.595841 c -0.0745,-6.217406 -0.1109,-6.638419 -0.63359,-7.33789 -1.09339,-1.463175 -4.19593,-1.73369 -5.97661,-0.52111 -1.90531,1.297448 -1.92692,1.38598 -2.01528,8.255823 l -0.0797,6.199018 h -1.83849 -1.83849 l -0.004,-6.416144 c -0.004,-6.900841 -0.063,-7.246567 -1.40085,-8.239945 -1.06646,-0.791853 -3.40793,-0.731477 -4.94801,0.12758 -2.0445,1.140431 -2.22533,1.806659 -2.37849,8.76291 l -0.1323,6.008359 3.11001,1.22867 c 2.99193,1.18202 3.61694,1.54711 3.25984,1.90421 -0.18787,0.18787 -0.0636,0.22969 -8.08964,-2.72162 -9.38255,-3.45011 -11.17726,-4.0936 -11.41719,-4.0936 -0.12346,0 -0.22448,0.7739 -0.22448,1.71979 v 1.71979 h -1.70987 -1.70986 l -0.0761,-2.4252 -0.0761,-2.425205 -1.32293,-0.464707 c -2.04988,-0.720071 -2.19061,-0.678555 -2.39847,0.707538 -0.1602,1.068264 -0.0666,1.439794 0.78341,3.108854 1.06519,2.09164 4.01247,6.29705 8.56265,12.21787 2.63874,3.4336 3.1683,4.3621 2.48785,4.3621 -0.10485,0 -3.26013,-3.50547 -7.01175,-7.78993 z m 6.31845,6.22004 c -0.0959,-0.1552 -0.30101,-0.28218 -0.45576,-0.28218 -0.17545,0 -0.15537,0.15181 0.0533,0.40327 0.36288,0.43725 0.68721,0.33967 0.40243,-0.12109 z m -0.96251,-1.15502 c -0.34972,-0.28603 -0.59618,-0.65314 -0.54767,-0.8158 0.0485,-0.16265 -7e-5,-0.20747 -0.10795,-0.0996 -0.26036,0.26036 -0.94341,-0.31889 -0.74831,-0.63458 0.1993,-0.32247 -0.41231,-1.05433 -0.72144,-0.86328 -0.13141,0.0812 -0.16922,0.26044 -0.084,0.39828 0.0852,0.13784 0.28595,0.16961 0.44615,0.0706 0.18536,-0.11456 0.23194,-0.0254 0.12809,0.24522 -0.10763,0.28047 0.14075,0.69208 0.72961,1.20911 0.49103,0.43113 0.84188,0.83478 0.77967,0.89699 -0.0622,0.0622 0.0837,0.11311 0.32432,0.11311 0.33955,0 0.29515,-0.11636 -0.19844,-0.52005 z m -34.23276,-2.08686 c 0.360942,-0.39089 0.656262,-0.82746 0.656262,-0.97013 0,-0.14267 0.138422,-0.30555 0.30761,-0.36195 0.169185,-0.0564 0.339529,-0.32 0.37854,-0.58579 0.08364,-0.5699 0.04327,-0.52733 -1.614459,1.70256 -1.640006,2.20606 -1.959844,2.71354 -1.083884,1.7198 0.384821,-0.43656 0.994989,-1.11358 1.355931,-1.50449 z m 31.52073,-1.47396 c -0.44332,-0.43872 -0.45667,-0.43652 -0.27442,0.0453 0.14863,0.39299 0.1074,0.45569 -0.18414,0.27994 -0.32356,-0.19505 -0.32401,-0.16281 -0.003,0.23239 0.26001,0.32036 0.45626,0.37505 0.65012,0.18119 0.19386,-0.19386 0.13702,-0.41689 -0.18829,-0.73882 z m -0.99402,-1.13958 c -0.18928,-0.11697 -0.45935,-0.14148 -0.60017,-0.0545 -0.14651,0.0905 -0.18515,-0.0265 -0.0903,-0.27357 0.0911,-0.23749 0.0717,-0.48991 -0.0432,-0.56093 -0.45539,-0.28144 -0.19439,0.81115 0.33254,1.39211 0.48876,0.53887 0.57282,0.55998 0.65313,0.164 0.0507,-0.24997 -0.0627,-0.55019 -0.25194,-0.66716 z m -24.693592,-4.1502 c 0.607486,-0.8126 0.632683,-0.89694 0.13919,-0.46598 -0.574231,0.50146 -1.224511,1.45816 -0.991135,1.45816 0.06061,0 0.443984,-0.44648 0.851945,-0.99218 z m -0.546647,-0.33073 c 0.08994,-0.14552 0.04446,-0.26459 -0.101066,-0.26459 -0.145521,0 -0.338167,0.11907 -0.428104,0.26459 -0.08994,0.14552 -0.04446,0.26458 0.101063,0.26458 0.145521,0 0.338169,-0.11906 0.428107,-0.26458 z m 45.376049,-0.26459 c -0.21828,-0.14106 -0.57547,-0.24993 -0.79375,-0.24193 -0.26169,0.01 -0.21663,0.092 0.13229,0.24193 0.72736,0.31256 1.14511,0.31256 0.66146,0 z m -1.65916,-0.68901 c -0.0879,-0.0879 -0.31612,-0.0973 -0.50712,-0.0209 -0.21106,0.0845 -0.14837,0.14716 0.15986,0.15985 0.27891,0.0115 0.43518,-0.051 0.34726,-0.13897 z m -1.25126,-0.36932 c -0.21828,-0.14106 -0.51595,-0.25648 -0.66146,-0.25648 -0.14552,0 -0.086,0.11542 0.1323,0.25648 0.21828,0.14107 0.51593,0.25648 0.66145,0.25648 0.14552,0 0.086,-0.11541 -0.13229,-0.25648 z m -1.98437,-0.79375 c -0.0899,-0.14552 -0.42439,-0.25621 -0.74322,-0.24599 -0.5589,0.0179 -0.56071,0.0268 -0.0505,0.24599 0.72826,0.31295 0.98716,0.31295 0.79375,0 z m -1.45521,-0.63557 c 0,-0.0585 -0.35719,-0.23093 -0.79375,-0.38312 -0.91881,-0.32029 -1.08444,-0.13943 -0.19844,0.2167 0.67015,0.26937 0.99219,0.32338 0.99219,0.16642 z m -34.792719,-1.21651 c 0.263393,-0.29104 0.419362,-0.52917 0.346599,-0.52917 -0.07276,0 -0.347789,0.23813 -0.611179,0.52917 -0.26339,0.29104 -0.41936,0.52917 -0.346602,0.52917 0.07276,0 0.347792,-0.23813 0.611182,-0.52917 z m 31.844399,-0.029 c -0.5583,-0.35376 -0.81361,-0.27548 -0.43555,0.13354 0.18764,0.20301 0.44317,0.30719 0.56784,0.23151 0.12468,-0.0757 0.0652,-0.23994 -0.13229,-0.36505 z m -3.44564,-1.32666 c -0.47728,-0.30255 -1.01437,-0.28959 -1.01437,0.0245 0,0.14095 0.19812,0.18025 0.44027,0.0873 0.29404,-0.11283 0.37736,-0.0671 0.25085,0.13756 -0.12587,0.20364 -0.0442,0.25078 0.24336,0.14044 0.34637,-0.13292 0.36234,-0.21075 0.0799,-0.3898 z m -26.548546,0.0358 c 0.09269,-0.14998 -0.01352,-0.19434 -0.248968,-0.10398 -0.458372,0.17589 -0.542237,0.36553 -0.161649,0.36553 0.136932,0 0.321709,-0.1177 0.410617,-0.26155 z m -13.390489,-1.11068 c 0.96288,-0.29671 2.197177,-0.7666 2.74288,-1.04421 l 0.992191,-0.504735 V 97.442094 95.06622 H 77.7686 73.535267 v -1.322916 -1.322917 l 3.108854,-0.03785 c 1.709869,-0.02082 3.733934,-0.04511 4.497916,-0.05399 0.763985,-0.0089 1.389065,-0.0887 1.389065,-0.177397 0,-0.0887 -1.994297,-0.791758 -4.431772,-1.56236 -2.437474,-0.770601 -5.443803,-1.731026 -6.68073,-2.134274 -1.236927,-0.403252 -3.181725,-0.994619 -4.321773,-1.314151 -1.99979,-0.560502 -2.085711,-0.563949 -2.438853,-0.09787 -1.345107,1.775294 -1.759483,6.585972 -0.804359,9.338175 1.627857,4.69069 8.103016,6.93077 14.41325,4.98625 z m 12.995487,0.57848 c 0,-0.14552 -0.0525,-0.26459 -0.116676,-0.26459 -0.06417,0 -0.190262,0.11907 -0.280199,0.26459 -0.08994,0.14551 -0.03743,0.26458 0.116676,0.26458 0.154109,0 0.280199,-0.11906 0.280199,-0.26458 z m 25.010128,-0.21349 c -0.0815,-0.0815 -0.29495,-1.7e-4 -0.47443,0.18065 -0.25937,0.26131 -0.22898,0.2917 0.14812,0.14812 0.26093,-0.0994 0.40778,-0.24731 0.32631,-0.32877 z m -26.067485,-0.9761 c -0.341233,-0.36322 -0.668168,-0.61267 -0.726522,-0.55431 -0.155477,0.15548 0.799412,1.21473 1.095047,1.21473 0.138549,0 -0.02729,-0.29719 -0.368525,-0.66042 z m -1.71755,-6.965184 c -0.210241,-0.21024 -0.665155,0.267031 -0.503627,0.528384 0.109863,0.177766 0.246216,0.150704 0.386805,-0.07677 0.119417,-0.193219 0.171987,-0.396449 0.116822,-0.451617 z m -1.855304,-0.841062 c -0.08994,-0.145524 -0.364855,-0.256215 -0.610928,-0.245986 -0.364723,0.01516 -0.349618,0.06062 0.08176,0.245986 0.708001,0.304236 0.717195,0.304236 0.529166,0 z m 2.165117,-0.314193 c -0.08446,-0.211066 -0.147155,-0.148373 -0.159853,0.159853 -0.01148,0.278913 0.05104,0.435184 0.138967,0.347266 0.08792,-0.08792 0.09732,-0.316127 0.02088,-0.507119 z M 84.912352,92.288095 C 84.54855,92.080128 84.0723,91.915419 83.854016,91.922084 c -0.218281,0.0067 -0.03969,0.175667 0.396875,0.375565 1.045099,0.478544 1.503709,0.471919 0.661461,-0.0096 z M 86.692779,91.2022 c -0.08792,-0.08792 -0.316125,-0.09732 -0.507119,-0.02087 -0.211066,0.08446 -0.148373,0.147156 0.15985,0.15985 0.278913,0.01148 0.435184,-0.05104 0.347269,-0.138964 z m 5.047641,-0.508606 c -0.08146,-0.08146 -0.229407,0.06538 -0.328766,0.326319 -0.143587,0.377084 -0.113194,0.407474 0.148111,0.148111 0.180824,-0.179475 0.262118,-0.392967 0.180655,-0.47443 z m -6.232758,0.228648 c -0.181901,-0.0734 -0.479554,-0.0734 -0.661456,0 -0.181901,0.0734 -0.03307,0.133453 0.33073,0.133453 0.363799,0 0.512627,-0.06005 0.330726,-0.133453 z m -3.593923,-0.474591 c 0,-0.211881 -0.101158,-0.322715 -0.224803,-0.246301 -0.12364,0.07641 -0.156302,0.24977 -0.07258,0.385236 0.213948,0.346176 0.297381,0.307197 0.297381,-0.138935 z m 2.271006,0.210005 c -0.181901,-0.0734 -0.479557,-0.0734 -0.661458,0 -0.181901,0.0734 -0.03307,0.133456 0.330729,0.133456 0.363802,0 0.512631,-0.06006 0.330729,-0.133456 z m 7.911357,-0.702617 c -0.385485,-0.464476 -0.06727,-0.797073 0.395309,-0.413173 0.422918,0.350993 1.160526,0.119975 1.131302,-0.354325 -0.01635,-0.265544 -0.04981,-0.267343 -0.154339,-0.0083 -0.0734,0.181901 -0.306766,0.330729 -0.518586,0.330729 -0.565391,0 0.379632,-0.936654 1.199933,-1.189304 0.549648,-0.169291 0.578059,-0.230405 0.204335,-0.43955 -0.543962,-0.304416 -2.137709,0.452231 -1.86885,0.887254 0.107797,0.174418 0.06184,0.22004 -0.112876,0.112059 -0.162087,-0.100174 -0.517298,-0.04312 -0.789353,0.12678 -0.479142,0.299231 -0.477409,0.326885 0.05539,0.882232 0.589393,0.614352 0.95687,0.667015 0.457739,0.0656 z m -13.930627,0.0841 c -0.08994,-0.145521 -0.364854,-0.256215 -0.610927,-0.245986 -0.364727,0.01516 -0.349618,0.06062 0.08176,0.245986 0.708001,0.304239 0.717195,0.304239 0.529167,0 z m 2.706468,-0.159854 c -0.08792,-0.08792 -0.316125,-0.09732 -0.507119,-0.02087 -0.211066,0.08446 -0.148373,0.147156 0.159856,0.15985 0.27891,0.01148 0.435184,-0.05104 0.347263,-0.138964 z m -2.116664,-0.529166 c -0.08792,-0.08792 -0.316125,-0.09732 -0.507121,-0.02088 -0.211067,0.08446 -0.148372,0.147156 0.159852,0.159851 0.278913,0.01148 0.435184,-0.05104 0.347269,-0.138965 z m -3.301783,-0.809125 c -0.181901,-0.0734 -0.479557,-0.0734 -0.661458,0 -0.181901,0.0734 -0.03307,0.133453 0.330729,0.133453 0.363802,0 0.51263,-0.06005 0.330729,-0.133453 z m -4.91684,-1.015397 c 0,-0.218281 -0.09922,-0.396875 -0.220486,-0.396875 -0.121268,0 -0.220486,0.178594 -0.220486,0.396875 0,0.218281 0.09922,0.396875 0.220486,0.396875 0.121267,0 0.220486,-0.178594 0.220486,-0.396875 z m 1.021237,-0.08119 c -0.08146,-0.08146 -0.294956,-1.69e-4 -0.474432,0.180652 -0.259362,0.261308 -0.228971,0.291698 0.148113,0.148114 0.260937,-0.09936 0.407781,-0.247304 0.326319,-0.328766 z m 24.995523,0.147338 c 2.64e-4,-0.10914 -0.423143,-0.198437 -0.941054,-0.198437 -0.517912,0 -0.878526,0.102148 -0.801365,0.226997 0.170648,0.276116 1.741569,0.250369 1.742419,-0.02856 z m 4.763104,-0.20887 c 0,-0.448243 -0.0625,-0.48184 -0.36911,-0.198437 -0.38078,0.351957 -0.31793,0.738037 0.12014,0.738037 0.13693,0 0.24897,-0.242819 0.24897,-0.5396 z M 68.508183,86.864137 c 0,-0.145521 -0.0525,-0.264586 -0.116676,-0.264586 -0.06417,0 -0.190262,0.119065 -0.280199,0.264586 -0.08994,0.145521 -0.03743,0.264583 0.116677,0.264583 0.154109,0 0.280198,-0.119062 0.280198,-0.264583 z m 30.559378,0 c -0.727364,-0.312558 -1.145109,-0.312558 -0.661459,0 0.218282,0.141065 0.575469,0.249936 0.79375,0.241935 0.261689,-0.0096 0.216625,-0.092 -0.132291,-0.241935 z M 67.011985,86.455851 c -0.08617,-0.224558 -0.213419,-0.351542 -0.282774,-0.282187 -0.06935,0.06936 -0.04762,0.253085 0.0483,0.408287 0.260893,0.422132 0.41338,0.340124 0.234473,-0.1261 z M 66.001643,85.8569 c -0.08146,-0.08146 -0.294956,-1.67e-4 -0.474432,0.180655 -0.259362,0.261305 -0.228971,0.291695 0.148113,0.148114 0.260937,-0.09936 0.407781,-0.247304 0.326319,-0.328769 z m 34.521127,-0.419664 c 0,-0.05719 -0.18478,-0.174889 -0.41062,-0.261553 -0.235456,-0.09035 -0.34166,-0.046 -0.248966,0.103983 0.155376,0.25141 0.659586,0.371859 0.659586,0.15757 z m 1.5364,-0.564475 c -0.0815,-0.08146 -0.22941,0.06538 -0.32877,0.326316 -0.14358,0.377087 -0.11319,0.407477 0.14812,0.148116 0.18082,-0.179477 0.26211,-0.392972 0.18065,-0.474432 z M 60.3061,84.482887 c 0,-0.145521 -0.119063,-0.264586 -0.264583,-0.264586 -0.145521,0 -0.264584,0.119065 -0.264584,0.264586 0,0.145521 0.119063,0.264583 0.264584,0.264583 0.14552,0 0.264583,-0.119062 0.264583,-0.264583 z m 42.59387,-1.669262 c 0.002,-0.117729 -0.11501,-0.140468 -0.26053,-0.05053 -0.14553,0.08994 -0.26277,0.364854 -0.26054,0.610927 0.004,0.385571 0.0395,0.392555 0.26054,0.05053 0.14106,-0.218281 0.2583,-0.493198 0.26053,-0.610927 z m -1.36431,-0.451429 c -0.0588,-0.176319 -0.25965,0.02035 -0.44639,0.437035 -0.31785,0.709212 -0.31102,0.729692 0.10686,0.320578 0.24551,-0.240369 0.39831,-0.581295 0.33953,-0.757613 z m 2.65479,-2.650871 c 0.16586,-0.475786 0.1764,-0.73887 0.0259,-0.645843 -0.13968,0.08633 -0.25397,0.335561 -0.25397,0.553842 0,0.218281 -0.1177,0.324134 -0.26156,0.235226 -0.14998,-0.09269 -0.19433,0.01351 -0.10398,0.248969 0.21668,0.564655 0.27306,0.527408 0.59363,-0.392194 z m -0.80836,-0.923982 c -0.0815,-0.08146 -0.22941,0.06538 -0.32877,0.326319 -0.14358,0.377084 -0.11319,0.407475 0.14811,0.148113 0.18083,-0.179476 0.26212,-0.39297 0.18066,-0.474432 z m 3.32705,-5.033824 c 0.0904,-0.235459 0.046,-0.341662 -0.10399,-0.248969 -0.14385,0.08891 -0.26155,0.273685 -0.26155,0.410617 0,0.380586 0.18964,0.296721 0.36554,-0.161648 z m -0.14451,-0.807046 c 0.0967,0.0597 0.19472,-0.205129 0.2178,-0.588516 l 0.0419,-0.697067 -0.36331,0.656311 c -0.19982,0.36097 -0.35812,0.775372 -0.35179,0.920893 0.006,0.145521 0.0718,0.115013 0.14551,-0.06779 0.0737,-0.182808 0.21313,-0.28353 0.30984,-0.223827 z m 1.15913,-2.374817 c -0.17396,-0.31085 -0.23363,-0.204221 -0.23363,0.41748 0,0.6217 0.0597,0.72833 0.23363,0.417479 0.13512,-0.241449 0.13512,-0.593509 0,-0.834959 z m 1.53027,-2.609614 c 0,-0.06417 -0.11907,-0.190261 -0.26459,-0.280198 -0.14552,-0.08994 -0.26458,-0.03743 -0.26458,0.116677 0,0.154109 0.11906,0.280198 0.26458,0.280198 0.14552,0 0.26459,-0.0525 0.26459,-0.116677 z m 1.23579,-2.881624 c 0.33896,-0.70318 0.61603,-1.417555 0.61572,-1.5875 -0.001,-0.504596 -1.49971,2.532234 -1.67563,3.395176 -0.15724,0.77128 -0.15325,0.775025 0.1409,0.132292 0.1665,-0.363802 0.58005,-1.236788 0.91901,-1.939968 z m 1.65587,-3.748574 c 0,-0.145521 -0.17016,0.03307 -0.37812,0.396875 -0.20798,0.363802 -0.37813,0.780521 -0.37813,0.926042 0,0.145521 0.17015,-0.03307 0.37813,-0.396875 0.20796,-0.363802 0.37812,-0.780521 0.37812,-0.926042 z M 101.364,114.5703 c -0.41543,-0.50056 0.20743,-1.33945 0.89605,-1.20683 0.73782,0.14209 0.70395,1.38674 -0.0406,1.49312 -0.30378,0.0434 -0.68871,-0.0854 -0.85541,-0.28629 z m 1.14314,-0.45408 c 0,-0.2143 -0.20836,-0.42975 -0.46302,-0.4788 -0.32487,-0.0626 -0.46302,0.0803 -0.46302,0.4788 0,0.3985 0.13815,0.54136 0.46302,0.4788 0.25466,-0.049 0.46302,-0.26451 0.46302,-0.4788 z m -3.165347,-6.86851 c -0.971428,-1.07341 0.270775,-2.77101 1.588367,-2.17067 0.82976,0.37806 1.05655,1.24392 0.53449,2.04067 -0.51615,0.78776 -1.474487,0.84644 -2.122857,0.13 z m 1.822517,-0.25323 c 0.90501,-1.00002 -0.6887,-2.25026 -1.646958,-1.29201 -0.431207,0.43121 -0.398883,0.88624 0.09827,1.38339 0.550548,0.55055 0.991278,0.52454 1.548678,-0.0914 z"
         id="path3835"
         inkscape:connector-curvature="0" />
      <path
         style="fill:#8ea357;stroke-width:0.26458338"
         d="m 109.16416,111.88253 c -5.0708,-5.79102 -7.03768,-7.86034 -7.66511,-8.06432 -1.01985,-0.33156 -1.855079,-0.3679 -4.283573,-0.18639 l -1.852083,0.13844 -0.7303,1.78019 c -0.401664,0.9791 -0.768938,1.81883 -0.816166,1.86605 -0.04722,0.0472 -0.03189,-0.84651 0.03408,-1.98607 l 0.119945,-2.07193 -0.854596,-0.35398 c -1.606386,-0.66539 -1.715313,-0.56236 -11.595534,10.96768 -1.50154,1.75227 -2.892587,3.27689 -3.091217,3.38805 -0.906497,0.5073 -0.513384,-0.44863 1.021095,-2.48297 3.870108,-5.13084 8.731917,-12.02745 9.190183,-13.03655 0.597813,-1.31637 0.622004,-1.931463 0.122931,-3.125919 -0.210029,-0.502666 -0.464111,-1.559007 -0.564621,-2.347415 -0.230417,-1.807353 -0.46405,-2.254409 -1.442601,-2.76044 l -0.785907,-0.406408 v 4.043617 4.043615 l -1.207874,0.72958 c -3.389428,2.04729 -6.653185,2.93033 -10.83067,2.93033 -7.695877,0 -12.723324,-3.23601 -14.324184,-9.220011 -0.7386,-2.760885 -0.271807,-6.624117 1.096119,-9.071602 l 0.635671,-1.137341 -0.660785,-0.251227 C 60.315532,85.12933 59.734388,84.945051 59.387534,84.857997 58.6552,84.674191 58.296613,83.997514 58.824249,83.79504 c 0.198722,-0.07626 1.020256,0.03343 1.825631,0.243739 l 1.46432,0.382389 0.881888,-0.910683 c 2.581837,-2.666136 9.406925,-4.187763 14.197903,-3.165368 2.430206,0.518606 4.677293,1.533615 5.824088,2.63074 0.790688,0.756447 2.423437,3.518665 2.423437,4.099878 0,0.216331 -2.277036,0.846735 -3.058435,0.846735 -0.204726,0 -0.670158,-0.58793 -1.03429,-1.30651 -0.364136,-0.718581 -1.076868,-1.622898 -1.583855,-2.009597 -2.871278,-2.19003 -9.176412,-2.279962 -12.503108,-0.178335 -0.623628,0.393975 -1.094697,0.83538 -1.046821,0.980901 0.101088,0.307263 2.946028,1.130617 11.421302,3.305439 7.048115,1.808605 10.107643,2.419739 11.003745,2.197979 0.350858,-0.08683 1.151614,-0.68611 1.779458,-1.331736 1.35482,-1.39319 3.438599,-2.411124 5.386482,-2.631315 2.661624,-0.300874 2.966046,-0.596017 5.576806,-5.406859 1.29407,-2.384576 4.16003,-7.993237 6.3688,-12.463693 3.52029,-7.124872 4.67743,-9.057085 4.67743,-7.810449 0,0.183328 -0.75845,1.999032 -1.68543,4.034896 -4.19312,9.208991 -9.1625,21.266404 -9.1625,22.231331 0,0.32665 0.20836,0.850379 0.46302,1.163842 l 0.46302,0.569933 1.19063,-0.860666 c 0.65484,-0.473366 2.64762,-2.085863 4.42842,-3.583331 1.78078,-1.497464 3.29883,-2.722663 3.37344,-2.722663 0.57632,0 -0.38899,1.147678 -3.72858,4.432964 -4.18098,4.113012 -4.02565,3.819089 -3.18039,6.018078 0.22374,0.582083 0.41385,1.594114 0.42246,2.248958 0.0187,1.422855 0.12996,1.619067 1.33048,2.346965 1.87654,1.137769 1.85209,1.200174 1.85209,-4.728215 V 87.12872 h 1.5875 1.5875 v 1.175224 1.175224 l 1.12448,-1.189033 c 1.45912,-1.542886 2.75531,-1.879536 5.01135,-1.301564 0.8689,0.222604 1.62974,0.404733 1.69075,0.404733 0.23095,0 0.0948,0.695645 -0.3521,1.799357 -0.43785,1.081296 -0.50617,1.132541 -1.25677,0.942583 -1.53637,-0.38881 -3.23354,-0.253899 -4.01754,0.319363 -1.33225,0.974145 -1.74222,2.235623 -1.8788,5.781035 l -0.12329,3.200415 4.14178,1.688153 c 4.40442,1.79519 5.40533,2.40571 1.76736,1.07801 -1.40322,-0.51211 -2.14635,-0.67736 -2.07432,-0.46127 0.0617,0.1852 0.22138,0.34671 0.35477,0.3589 0.52422,0.0479 1.76255,0.66268 1.62067,0.80456 -0.0828,0.0828 -1.30794,-0.27776 -2.72262,-0.80115 -1.41469,-0.5234 -2.67318,-0.95162 -2.79665,-0.95162 -0.12346,0 -0.22448,0.7739 -0.22448,1.71979 v 1.71979 h -1.70987 -1.70986 l -0.0761,-2.42521 -0.0761,-2.425197 -1.32292,-0.464707 c -2.04989,-0.720074 -2.19062,-0.678555 -2.39848,0.707538 -0.16019,1.068266 -0.0666,1.439796 0.78341,3.108856 1.0652,2.09164 4.01247,6.29705 8.56265,12.21787 2.63874,3.4336 3.1683,4.3621 2.48785,4.3621 -0.10485,0 -3.26013,-3.50547 -7.01175,-7.78994 z m 6.96903,7.16051 c 0,-0.30095 -5.15683,-6.69083 -5.58865,-6.92495 -0.28234,-0.15308 -0.44218,-0.34952 -0.35517,-0.43652 0.087,-0.087 0.0511,-0.22441 -0.0799,-0.30534 -0.13095,-0.0809 -0.24012,0.056 -0.24261,0.30423 -0.002,0.24826 1.35175,2.02896 3.00943,3.95711 2.72316,3.16751 3.25689,3.72559 3.25689,3.40547 z m -35.688293,-4.33151 c 1.066745,-1.2733 2.069507,-2.45035 2.228369,-2.61565 0.158858,-0.1653 1.91652,-2.18936 3.905908,-4.49791 1.989389,-2.30856 3.995344,-4.41129 4.457671,-4.67275 l 0.840605,-0.47537 -1.145659,-1.16735 -1.145659,-1.16733 -0.426386,1.24584 c -0.234514,0.68521 -1.402369,2.61505 -2.595235,4.28854 -2.22827,3.12608 -6.449756,8.91255 -7.652567,10.48952 -1.32039,1.73112 -0.37828,0.8538 1.532953,-1.42754 z m -2.178032,-13.34462 c 0.96288,-0.29671 2.197177,-0.7666 2.74288,-1.04421 l 0.992191,-0.504735 V 97.442094 95.06622 H 77.7686 73.535267 v -1.322916 -1.322917 l 3.108854,-0.03785 c 1.709869,-0.02082 3.733934,-0.04511 4.497916,-0.05399 0.763985,-0.0089 1.389065,-0.0887 1.389065,-0.177397 0,-0.0887 -1.994297,-0.791758 -4.431772,-1.56236 -2.437474,-0.770601 -5.443803,-1.731026 -6.68073,-2.134274 -1.236927,-0.403252 -3.181725,-0.994619 -4.321773,-1.314151 -1.99979,-0.560502 -2.085711,-0.563949 -2.438853,-0.09787 -1.345107,1.775294 -1.759483,6.585972 -0.804359,9.338175 1.627857,4.69069 8.103016,6.93077 14.41325,4.98625 z m 10.481946,-8.152773 c 0.24167,-0.727607 0.555924,-1.322917 0.698336,-1.322917 0.142414,0 0.172847,-0.139295 0.06762,-0.309549 -0.133106,-0.215371 -0.03969,-0.251362 0.307049,-0.118306 0.274098,0.10518 0.419852,0.112729 0.323892,0.01677 -0.219276,-0.219276 0.384379,-0.899158 0.653619,-0.736156 0.109141,0.06607 0.198438,0.0068 0.198438,-0.131754 0,-0.485333 -0.702313,-0.515678 -0.997445,-0.0431 -0.747197,1.196446 -4.173635,0.710663 -14.216099,-2.015482 -5.859281,-1.590569 -5.688541,-1.556901 -5.688541,-1.121738 0,0.224205 0.688531,0.559546 1.785937,0.869817 3.560063,1.006544 14.502179,4.693606 15.147398,5.104075 0.363799,0.231439 0.756671,0.580652 0.873043,0.776023 0.315978,0.530489 0.369419,0.469416 0.846748,-0.96769 z m 2.991609,-2.520543 c -0.08146,-0.08146 -0.229407,0.06538 -0.328766,0.326319 -0.143587,0.377084 -0.113194,0.407474 0.148111,0.148111 0.180824,-0.179475 0.262118,-0.392967 0.180655,-0.47443 z m 0.844849,-0.225186 c 0,-0.05494 -0.181319,-0.250376 -0.402931,-0.434298 -0.336908,-0.279606 -0.375624,-0.263239 -0.236276,0.0999 0.142314,0.370874 0.639207,0.630825 0.639207,0.334401 z m -0.897697,-0.553906 c -0.09089,-0.61922 -0.433297,-0.819568 -0.690224,-0.403852 -0.150884,0.244134 -0.121787,0.45498 0.08053,0.583597 0.481642,0.306186 0.67274,0.249846 0.60969,-0.179745 z m 1.426864,-0.996585 c 0,-0.110098 0.386953,-0.364807 0.859895,-0.56602 0.709997,-0.302062 0.779751,-0.399156 0.40014,-0.556977 -0.294645,-0.122497 -0.894114,0.06341 -1.669213,0.517644 -0.968328,0.567481 -1.14911,0.781513 -0.906743,1.073542 0.240384,0.289647 0.407027,0.299606 0.809318,0.04837 0.278632,-0.174008 0.506603,-0.406461 0.506603,-0.516559 z m 0.461237,0.32747 c 0.0696,-0.255265 0.03022,-0.293021 -0.110365,-0.105817 -0.120222,0.16008 -0.397174,0.366339 -0.615456,0.458353 -0.278857,0.117549 -0.246038,0.149016 0.110366,0.10582 0.278985,-0.03382 0.555937,-0.240075 0.615455,-0.458356 z m 2.978346,-1.631598 c 0,-0.121267 -0.423746,-0.220488 -0.941657,-0.220488 -0.517912,0 -0.880335,0.09922 -0.805389,0.220488 0.07495,0.121269 0.498694,0.220485 0.941657,0.220485 0.442965,0 0.805389,-0.09922 0.805389,-0.220485 z m 4.762501,-0.378939 c 0,-0.378187 0.16987,-1.062797 0.37748,-1.521352 0.20762,-0.458554 1.05614,-2.500612 1.8856,-4.537904 1.64638,-4.043797 4.37222,-10.492729 5.14437,-12.170833 2.20459,-4.791229 3.44534,-7.623949 3.37163,-7.697659 -0.0481,-0.04812 -0.97507,1.712701 -2.05985,3.912945 -1.84058,3.733175 -6.68802,13.239189 -9.21563,18.072214 -0.60885,1.164165 -1.45004,2.432969 -1.869323,2.819565 l -0.762328,0.7029 1.365586,0.524293 c 1.793535,0.688602 1.762465,0.690438 1.762465,-0.104169 z M 68.508183,86.874387 c 0,-0.139883 -0.61862,-0.438047 -1.374712,-0.662583 -1.718593,-0.510363 -2.32268,-0.10469 -0.698959,0.469387 1.35344,0.47852 2.073671,0.545621 2.073671,0.193196 z m -6.879166,-2.093844 c 0,-0.12733 -0.327422,-0.303059 -0.727605,-0.390509 -0.400182,-0.08745 -0.995494,-0.235278 -1.322916,-0.328512 -0.94049,-0.267812 -0.692642,0.313592 0.264583,0.620662 1.103335,0.353941 1.785938,0.391533 1.785938,0.09836 z M 101.364,114.5703 c -0.41543,-0.50056 0.20743,-1.33945 0.89605,-1.20683 0.73782,0.14209 0.70395,1.38674 -0.0406,1.49312 -0.30378,0.0434 -0.68871,-0.0854 -0.85541,-0.28629 z m 1.14314,-0.45408 c 0,-0.2143 -0.20836,-0.42975 -0.46302,-0.4788 -0.32487,-0.0626 -0.46302,0.0803 -0.46302,0.4788 0,0.3985 0.13815,0.54136 0.46302,0.4788 0.25466,-0.049 0.46302,-0.26451 0.46302,-0.4788 z m 27.25209,-6.46295 c -0.43656,-0.18389 -3.3241,-1.26531 -6.41676,-2.40315 -3.09265,-1.13783 -5.57626,-2.11553 -5.51913,-2.17266 0.0571,-0.0571 3.04529,0.983 6.64034,2.3114 3.59505,1.32841 6.58943,2.36231 6.65417,2.29756 0.0647,-0.0648 -2.23851,-1.04167 -5.11836,-2.17094 -5.40978,-2.12132 -6.5917,-2.64614 -5.30225,-2.35442 l 0.72762,0.16461 V 95.227195 87.12872 h 1.71979 1.71979 v 1.107835 1.107831 l 0.72761,-0.696769 c 1.31457,-1.258875 3.13286,-1.879595 5.4901,-1.874184 2.50087,0.0057 3.77863,0.468577 5.0681,1.835811 l 0.89387,0.947777 0.97432,-0.855464 c 1.6111,-1.414563 3.09068,-1.933546 5.49913,-1.928905 2.66793,0.0051 4.33548,0.716137 5.38035,2.294017 l 0.70506,1.064733 0.0781,7.229909 0.0781,7.229909 h -1.71883 -1.71882 l -0.0791,-6.595843 c -0.0745,-6.217409 -0.1109,-6.638422 -0.63359,-7.337893 -1.09339,-1.463175 -4.19594,-1.73369 -5.97662,-0.521107 -1.90531,1.297448 -1.92691,1.385977 -2.01527,8.255823 l -0.0797,6.19902 h -1.83849 -1.8385 l -0.004,-6.416146 c -0.004,-6.900841 -0.063,-7.246567 -1.40085,-8.239945 -1.06645,-0.791853 -3.40792,-0.73148 -4.94801,0.127577 -2.04416,1.140251 -2.22532,1.807263 -2.37849,8.757732 l -0.1323,6.003172 3.15653,1.27287 c 1.73609,0.70008 3.20453,1.42169 3.26321,1.60359 0.13376,0.41476 -0.61149,0.39371 -1.65724,-0.0468 z m -30.417437,-0.40556 c -0.971428,-1.07341 0.270775,-2.77101 1.588367,-2.17067 0.82976,0.37806 1.05655,1.24392 0.53449,2.04067 -0.51615,0.78776 -1.474487,0.84644 -2.122857,0.13 z m 1.822517,-0.25323 c 0.90501,-1.00002 -0.6887,-2.25026 -1.646958,-1.29201 -0.431207,0.43121 -0.398883,0.88624 0.09827,1.38339 0.550548,0.55055 0.991278,0.52454 1.548678,-0.0914 z"
         id="path3833"
         inkscape:connector-curvature="0" />
      <path
         style="fill:#788951;stroke-width:0.26458338"
         d="m 114.44471,117.88369 c -9.82059,-11.25246 -12.18297,-13.81764 -12.957,-14.06922 -1.00847,-0.32779 -1.849353,-0.36374 -4.272233,-0.18265 l -1.852083,0.13844 -0.7303,1.78019 c -0.401664,0.9791 -0.768938,1.81883 -0.816166,1.86605 -0.04722,0.0472 -0.03189,-0.84651 0.03408,-1.98607 l 0.119944,-2.07193 -0.844106,-0.34964 c -1.188958,-0.49248 -2.199418,0.0476 -4.026164,2.15195 -0.801802,0.92365 -3.460364,4.00109 -5.907916,6.83874 -2.447552,2.83766 -4.601792,5.25015 -4.787201,5.36109 -0.989075,0.59183 -0.364683,-0.61371 1.834025,-3.54103 4.39655,-5.85349 8.291057,-11.45697 8.60202,-12.37673 0.404122,-1.1953 0.383354,-1.930022 -0.07979,-2.822723 -0.211119,-0.406938 -0.464169,-1.402811 -0.562332,-2.213057 -0.222787,-1.838937 -0.454792,-2.289173 -1.442903,-2.800144 l -0.785899,-0.406408 v 4.043616 4.043616 l -1.207874,0.72958 c -3.389428,2.04729 -6.653185,2.93033 -10.83067,2.93033 -7.695877,0 -12.723324,-3.23601 -14.324184,-9.220011 -0.741384,-2.771294 -0.271734,-6.624249 1.108462,-9.093687 0.772208,-1.381631 0.760034,-1.286005 0.184992,-1.453087 -0.361694,-0.105092 -0.346514,-0.124642 0.06937,-0.08934 0.331865,0.02817 0.967404,-0.426742 1.68736,-1.207803 4.293358,-4.657742 15.899374,-5.175289 20.359939,-0.907909 0.790692,0.756447 2.423441,3.518665 2.423441,4.099878 0,0.216331 -2.277039,0.846735 -3.058436,0.846735 -0.204729,0 -0.670157,-0.587931 -1.034293,-1.30651 -0.364133,-0.718582 -1.076865,-1.622898 -1.583854,-2.009598 -2.871355,-2.19009 -9.172201,-2.279945 -12.505296,-0.178334 -0.624832,0.393975 -1.080058,0.863716 -1.011612,1.043871 0.06845,0.180158 0.01341,0.29922 -0.12231,0.264584 -0.446458,-0.113935 -1.841492,1.763593 -2.312289,3.112029 -0.645533,1.848905 -0.625444,5.614127 0.04019,7.532155 1.900558,5.476487 10.331626,7.413727 17.156131,3.942037 l 0.992188,-0.504737 v -2.375871 -2.375873 h -4.233334 -4.233333 v -1.32292 -1.322914 l 3.108854,-0.02916 c 4.635519,-0.04348 5.84005,-0.100299 6.023917,-0.284166 0.267772,-0.267774 4.076097,1.114994 4.810398,1.746616 0.481364,0.414051 0.73551,0.984281 0.898657,2.016336 0.266658,1.686872 0.741987,2.948043 1.041366,2.763018 0.28208,-0.174334 0.05082,1.739151 -0.35001,2.896031 -0.346326,0.99957 -3.416429,5.44853 -7.931967,11.49442 -4.772204,6.38953 -3.535859,5.19322 5.098785,-4.93367 2.229565,-2.61488 4.265425,-4.74777 4.860616,-5.09227 l 1.024159,-0.59278 -0.996928,-0.91331 c -0.747403,-0.68471 -1.01681,-1.1561 -1.07636,-1.883337 -0.04369,-0.533513 -0.01601,-0.820451 0.06152,-0.637645 0.222856,0.525547 0.623081,0.103417 0.643512,-0.678723 0.01659,-0.635743 0.04294,-0.655322 0.245986,-0.182822 0.154686,0.359977 0.235907,0.402276 0.254031,0.132295 0.02125,-0.316593 0.0812,-0.303213 0.296328,0.06615 0.148326,0.254662 0.385575,0.463021 0.52722,0.463021 0.141644,0 0.09036,-0.267891 -0.113962,-0.595312 -0.204324,-0.327422 -0.44746,-0.922735 -0.540305,-1.322917 l -0.16881,-0.727604 4.172228,-0.04622 c 2.294726,-0.02543 3.636447,-0.0854 2.981603,-0.133282 -2.904215,-0.212352 -3.815996,-0.684961 -1.984375,-1.028575 0.509323,-0.09555 0.926042,-0.274098 0.926042,-0.396775 0,-0.122676 0.803671,-0.264699 1.785937,-0.315608 0.982264,-0.05091 -0.389221,-0.11588 -3.047749,-0.14438 l -4.833686,-0.05182 0.171321,-0.727604 c 0.679066,-2.88403 4.005601,-4.478517 7.066171,-3.386981 1.309256,0.466939 1.989537,1.0899 2.615127,2.394794 l 0.50739,1.058333 -0.11034,-0.916334 c -0.0667,-0.553797 0.0318,-1.058503 0.24899,-1.27567 0.19764,-0.197636 0.36957,-0.261533 0.38208,-0.141999 0.0125,0.119536 0.1297,-0.139851 0.26042,-0.576414 0.28286,-0.94461 -0.11478,-1.353222 -2.399828,-2.466065 -1.199587,-0.58421 -1.803784,-0.705657 -3.439583,-0.691366 -2.590113,0.02262 -4.356688,0.776234 -5.935184,2.531903 -0.63641,0.707843 -1.377048,1.277586 -1.645859,1.266098 -0.372973,-0.01593 -0.394735,-0.056 -0.09187,-0.169101 0.218281,-0.08152 0.921773,-0.674642 1.563317,-1.318059 1.531302,-1.535771 2.846607,-2.17746 5.36413,-2.616962 1.894547,-0.330742 3.391303,-0.953534 3.391303,-1.411099 0,-0.100971 0.184356,-0.4147 0.409686,-0.697175 0.36009,-0.451419 0.359079,-0.409141 -0.0083,0.349261 -0.229905,0.47457 -0.652389,1.009224 -0.93885,1.188125 -0.759945,0.474591 -0.663798,0.590473 0.801475,0.966009 0.727273,0.186396 1.409363,0.476795 1.515743,0.645332 0.11687,0.18514 0.2618,-0.0078 0.36617,-0.487317 l 0.17274,-0.79375 0.0313,0.818888 c 0.0172,0.450389 0.24767,1.014693 0.51211,1.254008 0.45015,0.407382 0.55556,0.381162 1.65364,-0.411329 0.64507,-0.465545 2.62984,-2.071645 4.41064,-3.569113 1.78079,-1.497463 3.29884,-2.722662 3.37345,-2.722662 0.56919,0 -0.38325,1.130089 -3.729,4.424528 -4.18266,4.118518 -4.02686,3.823256 -3.17997,6.026513 0.22374,0.582083 0.41385,1.594115 0.42247,2.248958 0.0187,1.422855 0.12995,1.619068 1.33047,2.346966 1.87654,1.137769 1.85209,1.200173 1.85209,-4.728216 V 87.12873 h 1.5875 1.5875 v 1.175223 1.175224 l 1.12448,-1.189032 c 1.45912,-1.542886 2.75531,-1.879537 5.01135,-1.301565 0.8689,0.222604 1.62974,0.404733 1.69075,0.404733 0.23095,0 0.0948,0.695645 -0.3521,1.799357 -0.43785,1.081297 -0.50617,1.132541 -1.25677,0.942584 -1.53637,-0.388811 -3.23353,-0.2539 -4.01753,0.319362 -1.33276,0.974514 -1.74222,2.235303 -1.87899,5.785707 l -0.12347,3.205086 2.81925,1.154101 c 1.55059,0.63476 2.77687,1.19649 2.72507,1.24829 -0.0518,0.0518 -0.84488,-0.20002 -1.76241,-0.5596 -0.91753,-0.35958 -1.76198,-0.59584 -1.87656,-0.52503 -0.11458,0.0708 -0.38801,-0.0509 -0.60763,-0.27055 -0.56468,-0.564677 -1.05146,-0.522457 -0.7346,0.0637 0.13767,0.25466 1.04153,0.74404 2.0086,1.08752 0.96707,0.34347 1.71035,0.67244 1.65175,0.73105 -0.0586,0.0586 -0.90147,-0.19266 -1.87303,-0.55836 -0.97157,-0.36569 -1.88283,-0.6649 -2.02503,-0.6649 -0.1422,0 -0.25854,0.77391 -0.25854,1.71979 v 1.71979 h -1.70987 -1.70986 l -0.0761,-2.4252 -0.0761,-2.425203 -1.32292,-0.464706 c -2.04677,-0.718979 -2.19082,-0.677228 -2.39655,0.694682 -0.15329,1.022247 -0.0585,1.447317 0.63901,2.864057 1.04685,2.12647 4.52217,7.12541 8.54181,12.28667 2.77082,3.55776 3.35616,4.55897 2.65897,4.54811 -0.10055,-0.002 -0.88311,-0.80524 -1.73901,-1.78594 z m 1.79271,1.19347 c -0.10537,-0.1819 -1.92415,-2.56315 -4.04174,-5.29167 -2.30655,-2.97198 -4.02992,-4.96094 -4.29855,-4.96094 -0.2466,0 -0.42298,0.17305 -0.39194,0.38454 0.0641,0.43662 8.38054,10.16044 8.70976,10.18368 0.11773,0.008 0.12784,-0.13371 0.0225,-0.31561 z m -14.211,-27.235549 c -0.0845,-0.211066 -0.14715,-0.148373 -0.15985,0.159853 -0.0115,0.278913 0.051,0.435184 0.13897,0.347266 0.0879,-0.08792 0.0973,-0.316127 0.0209,-0.507119 z m 0.93052,-1.590807 c -0.24695,-0.246944 -0.3175,-0.17639 -0.3175,0.3175 0,0.493889 0.0706,0.564443 0.3175,0.3175 0.24694,-0.246944 0.24694,-0.388057 0,-0.635 z M 101.364,114.5703 c -0.41543,-0.50056 0.20743,-1.33945 0.89605,-1.20683 0.73782,0.14209 0.70395,1.38674 -0.0406,1.49312 -0.30378,0.0434 -0.68871,-0.0854 -0.85541,-0.28629 z m 1.14314,-0.45408 c 0,-0.2143 -0.20836,-0.42975 -0.46302,-0.4788 -0.32487,-0.0626 -0.46302,0.0803 -0.46302,0.4788 0,0.3985 0.13815,0.54136 0.46302,0.4788 0.25466,-0.049 0.46302,-0.26451 0.46302,-0.4788 z m 28.37822,-6.2612 c 0.18281,-0.0737 0.25371,-0.26128 0.15756,-0.41686 -0.10333,-0.1672 -0.0499,-0.20567 0.13064,-0.0941 0.46167,0.28532 0.36604,0.68945 -0.15756,0.66583 -0.27933,-0.0126 -0.33116,-0.074 -0.13064,-0.15489 z m -31.543567,-0.60731 c -0.971428,-1.07341 0.270775,-2.77101 1.588367,-2.17067 0.82976,0.37806 1.05655,1.24392 0.53449,2.04067 -0.51615,0.78776 -1.474487,0.84644 -2.122857,0.13 z m 1.822517,-0.25323 c 0.90501,-1.00002 -0.6887,-2.25026 -1.646958,-1.29201 -0.431207,0.43121 -0.398883,0.88624 0.09827,1.38339 0.550548,0.55055 0.991278,0.52454 1.548678,-0.0914 z m 25.55222,-0.55118 c -0.21829,-0.14106 -0.27782,-0.25648 -0.1323,-0.25648 0.14551,0 0.44318,0.11542 0.66146,0.25648 0.21828,0.14107 0.2778,0.25648 0.13229,0.25648 -0.14552,0 -0.44317,-0.11541 -0.66145,-0.25648 z m 1.05833,-0.26458 c -0.21828,-0.14107 -0.27781,-0.25648 -0.13229,-0.25648 0.14552,0 0.44317,0.11541 0.66146,0.25648 0.21828,0.14107 0.27781,0.25648 0.13229,0.25648 -0.14552,0 -0.44318,-0.11541 -0.66146,-0.25648 z m -1.32292,-0.52917 c -0.21828,-0.14106 -0.27781,-0.25648 -0.13229,-0.25648 0.14552,0 0.44318,0.11542 0.66146,0.25648 0.21828,0.14107 0.27781,0.25648 0.13229,0.25648 -0.14552,0 -0.44318,-0.11541 -0.66146,-0.25648 z m -3.04271,-0.40619 c -0.66162,-0.31867 -0.68364,-0.3554 -0.13229,-0.22064 0.7497,0.18324 1.5924,0.61276 1.19063,0.60685 -0.14552,-0.002 -0.62177,-0.17593 -1.05834,-0.38621 z m 1.85396,-0.11994 c -0.0927,-0.14999 0.0135,-0.19434 0.24897,-0.10399 0.45837,0.17589 0.54223,0.36554 0.16165,0.36554 -0.13693,0 -0.32171,-0.1177 -0.41062,-0.26155 z m -2.74754,-1.00658 c -0.92802,-0.38158 -1.5531,-0.73853 -1.38906,-0.79321 0.21259,-0.0709 0.29827,-2.41131 0.29827,-8.147166 V 87.12872 h 1.71979 1.71979 v 1.107835 1.107831 l 0.72761,-0.696769 c 1.31457,-1.258875 3.13286,-1.879595 5.4901,-1.874184 2.50087,0.0057 3.77863,0.468577 5.0681,1.835811 l 0.89387,0.947777 0.97432,-0.855464 c 1.6111,-1.414563 3.09068,-1.933546 5.49913,-1.928905 2.66793,0.0051 4.33548,0.716137 5.38035,2.294017 l 0.70506,1.064733 0.0781,7.229909 0.0781,7.229909 h -1.71883 -1.71882 l -0.0791,-6.595843 c -0.0745,-6.217409 -0.1109,-6.638422 -0.63359,-7.337893 -1.09339,-1.463175 -4.19594,-1.73369 -5.97662,-0.521107 -1.90531,1.297448 -1.92691,1.385977 -2.01527,8.255823 l -0.0797,6.19902 h -1.83849 -1.8385 l -0.004,-6.416146 c -0.004,-6.900841 -0.063,-7.246567 -1.40085,-8.239945 -1.06645,-0.791853 -3.40792,-0.73148 -4.94801,0.127577 -2.04081,1.13838 -2.22527,1.813425 -2.37849,8.704527 -0.11173,5.025317 -0.19396,5.957237 -0.52916,5.996687 -0.21828,0.0257 -1.15618,-0.26549 -2.08421,-0.64708 z m -2.41371,-0.0548 c -0.21828,-0.14106 -0.27781,-0.25648 -0.13229,-0.25648 0.14552,0 0.44318,0.11542 0.66146,0.25648 0.21828,0.14106 0.27781,0.25648 0.13229,0.25648 -0.14552,0 -0.44318,-0.11542 -0.66146,-0.25648 z m -1.5875,-1.5875 c -0.21828,-0.14106 -0.27781,-0.25648 -0.13229,-0.25648 0.14552,0 0.44318,0.11542 0.66146,0.25648 0.21828,0.14106 0.27781,0.25648 0.13229,0.25648 -0.14552,0 -0.44318,-0.11542 -0.66146,-0.25648 z M 79.752975,91.09747 c -1.164167,-0.413755 -1.988692,-0.761611 -1.832279,-0.773017 0.328185,-0.02392 4.10062,1.233371 4.300569,1.433319 0.253158,0.253159 -0.358521,0.08953 -2.46829,-0.660302 z m 6.553472,-0.183356 c 0.257434,-0.06708 0.614619,-0.06267 0.79375,0.0098 0.179134,0.07248 -0.03149,0.127362 -0.468056,0.12197 -0.43656,-0.0054 -0.583123,-0.06469 -0.325694,-0.131773 z m -1.179121,-0.261967 c 0.190992,-0.07643 0.419198,-0.06703 0.507119,0.02088 0.08792,0.08792 -0.06835,0.150453 -0.347265,0.138965 -0.308227,-0.0127 -0.37092,-0.07539 -0.159854,-0.159851 z M 83.78787,90.393075 c 0.181902,-0.0734 0.47956,-0.0734 0.661461,0 0.181902,0.0734 0.03307,0.133454 -0.330729,0.133454 -0.363802,0 -0.512633,-0.06005 -0.330732,-0.133454 z m -1.041794,-0.270097 c 0.190992,-0.07643 0.419196,-0.06703 0.507117,0.02088 0.08792,0.08792 -0.06835,0.150452 -0.347263,0.138964 -0.308229,-0.0127 -0.370922,-0.07539 -0.159854,-0.15985 z M 81.68774,89.858397 c 0.190995,-0.07643 0.419198,-0.06703 0.507119,0.02088 0.08792,0.08792 -0.06835,0.150453 -0.347265,0.138965 -0.308227,-0.0127 -0.37092,-0.07539 -0.159854,-0.159851 z m -1.322916,-0.264583 c 0.190994,-0.07643 0.419198,-0.06703 0.507119,0.02088 0.08792,0.08792 -0.06835,0.150452 -0.347263,0.138964 -0.308229,-0.0127 -0.370922,-0.07539 -0.159856,-0.15985 z m -6.432682,-0.348427 c -0.333544,-0.14333 -0.38245,-0.227391 -0.132292,-0.227391 0.218282,0 0.635,0.102325 0.926042,0.227391 0.333544,0.14333 0.38245,0.227391 0.132292,0.227391 -0.218282,0 -0.635,-0.102325 -0.926042,-0.227391 z m 5.374348,0.08384 c 0.190995,-0.07643 0.419198,-0.06703 0.507119,0.02088 0.08792,0.08792 -0.06835,0.150453 -0.347265,0.138965 -0.308227,-0.0127 -0.37092,-0.07539 -0.159854,-0.159851 z m -1.058332,-0.264584 c 0.190996,-0.07643 0.419199,-0.06703 0.507121,0.02088 0.08792,0.08792 -0.06835,0.150452 -0.347269,0.138964 -0.308224,-0.0127 -0.370919,-0.07539 -0.159852,-0.15985 z m -1.058334,-0.264581 c 0.190996,-0.07643 0.4192,-0.06703 0.507119,0.02088 0.08792,0.08792 -0.06835,0.150453 -0.347266,0.138965 -0.308225,-0.0127 -0.370919,-0.07539 -0.159853,-0.159851 z m -1.852083,-0.529169 c 0.190996,-0.07643 0.419199,-0.06703 0.507118,0.02088 0.08792,0.08792 -0.06835,0.150452 -0.347265,0.138964 -0.308225,-0.0127 -0.37092,-0.07539 -0.159853,-0.15985 z m -6.961849,-0.756391 c -1.533287,-0.511355 -1.658528,-0.591894 -0.727604,-0.467913 1.247507,0.166145 1.606109,-0.316074 0.450699,-0.606065 -0.370579,-0.09301 -0.62384,-0.219046 -0.562802,-0.280088 0.06104,-0.06104 0.852245,0.09511 1.758238,0.347001 1.448899,0.402831 1.572427,0.485939 1.025822,0.690155 -0.606393,0.226555 -0.609004,0.241345 -0.107846,0.610817 0.670205,0.494105 0.393573,0.449834 -1.836507,-0.293907 z m 5.903516,0.49181 c 0.190996,-0.07643 0.419199,-0.06703 0.507118,0.02088 0.08792,0.08792 -0.06835,0.150455 -0.347266,0.138967 -0.308224,-0.0127 -0.370919,-0.07539 -0.159852,-0.15985 z m -1.058334,-0.264585 c 0.190996,-0.07643 0.419199,-0.06703 0.507118,0.02088 0.08792,0.08792 -0.06835,0.150453 -0.347265,0.138965 -0.308225,-0.0127 -0.37092,-0.07539 -0.159853,-0.159851 z m -1.670182,-0.348428 c -0.333544,-0.14333 -0.38245,-0.22739 -0.132292,-0.22739 0.218281,0 0.635,0.102324 0.926042,0.22739 0.333544,0.14333 0.38245,0.227391 0.132292,0.227391 -0.218282,0 -0.635,-0.102325 -0.926042,-0.227391 z m 30.181868,-1.322912 c 0.0973,-0.363802 0.28728,-0.840052 0.42215,-1.058336 0.17042,-0.275823 0.19125,-0.195125 0.0683,0.264586 -0.0973,0.363802 -0.28728,0.840052 -0.42215,1.058333 -0.17042,0.275826 -0.19125,0.195125 -0.0683,-0.264583 z M 59.727324,84.831314 c 0.190996,-0.07643 0.419199,-0.06703 0.507118,0.02088 0.08792,0.08792 -0.06835,0.150452 -0.347266,0.138967 -0.308224,-0.0127 -0.370919,-0.0754 -0.159852,-0.159857 z m -1.006126,-0.477589 c -0.264279,-0.318439 -0.246842,-0.424419 0.09117,-0.554125 0.22987,-0.08821 0.570701,-0.09902 0.757402,-0.02402 0.186702,0.075 0.05699,0.145762 -0.288252,0.15725 -0.527234,0.01755 -0.574987,0.08441 -0.298332,0.417762 0.181158,0.218281 0.269846,0.396875 0.197085,0.396875 -0.07276,0 -0.279342,-0.177186 -0.45907,-0.393745 z m 1.717194,-0.135424 c -0.333544,-0.143327 -0.38245,-0.227388 -0.132292,-0.227388 0.218281,0 0.635,0.102322 0.926042,0.227388 0.333544,0.14333 0.382449,0.227394 0.132291,0.227394 -0.218281,0 -0.635,-0.102325 -0.926041,-0.227394 z m 41.936458,0.159652 c 0,-0.338349 2.18473,-5.471448 2.28575,-5.370435 0.0899,0.08992 -1.9608,5.208267 -2.18492,5.453321 -0.0554,0.06063 -0.10083,0.02334 -0.10083,-0.08289 z m -1.71979,-1.482567 c 0.3687,-0.727604 0.7299,-1.322917 0.80266,-1.322917 0.0728,0 -0.16937,0.595313 -0.53808,1.322917 -0.3687,0.727604 -0.7299,1.322915 -0.80266,1.322915 -0.0728,0 0.16938,-0.595311 0.53808,-1.322915 z m 1.85208,-3.439584 c 0.36871,-0.727604 0.72991,-1.322916 0.80267,-1.322916 0.0728,0 -0.16938,0.595312 -0.53808,1.322916 -0.36871,0.727605 -0.72991,1.322917 -0.80267,1.322917 -0.0728,0 0.16938,-0.595312 0.53808,-1.322917 z m 2.25707,-0.926041 c 0,-0.145521 0.11541,-0.443177 0.25648,-0.661459 0.14106,-0.218281 0.25647,-0.277812 0.25647,-0.132291 0,0.145521 -0.11541,0.443177 -0.25647,0.661458 -0.14107,0.218281 -0.25648,0.277813 -0.25648,0.132292 z m -1.32408,-0.661459 c 0.009,-0.242417 7.1159,-14.158533 7.12645,-13.954566 0.0127,0.246419 -5.84136,11.970855 -6.59141,13.201113 -0.297,0.48716 -0.53777,0.826214 -0.53504,0.753453 z m 1.86474,-0.577872 c -0.0312,-0.288348 1.36752,-3.414859 1.47823,-3.304154 0.055,0.055 -0.2507,0.861654 -0.67932,1.792572 -0.42862,0.930919 -0.78813,1.61113 -0.79891,1.511582 z m 1.58514,-3.719278 c -0.0262,-0.297941 1.63232,-3.931078 1.74368,-3.819708 0.0535,0.05347 -0.3131,0.978898 -0.81461,2.056515 -0.5015,1.077616 -0.91958,1.871053 -0.92907,1.763193 z m 1.8536,-4.301808 c 0,-0.145521 0.17016,-0.562239 0.37812,-0.926041 0.20797,-0.363803 0.37813,-0.542396 0.37813,-0.396875 0,0.14552 -0.17016,0.562239 -0.37813,0.926041 -0.20796,0.363802 -0.37812,0.542396 -0.37812,0.396875 z m 0.79718,-1.852083 c 0,-0.145521 0.22814,-0.681302 0.50699,-1.190625 0.27884,-0.509323 0.50698,-0.806979 0.50698,-0.661458 0,0.14552 -0.22814,0.681302 -0.50698,1.190625 -0.27885,0.509322 -0.50699,0.806979 -0.50699,0.661458 z m 1.05833,-2.38125 c 0,-0.145521 0.22815,-0.681302 0.50699,-1.190625 0.27884,-0.509323 0.50699,-0.806979 0.50699,-0.661458 0,0.14552 -0.22815,0.681302 -0.50699,1.190625 -0.27884,0.509323 -0.50699,0.806979 -0.50699,0.661458 z m 0.51758,-2.682668 c -0.0161,-0.458119 0.97482,-1.577936 1.19881,-1.354762 0.10816,0.107747 0.0582,0.464934 -0.1109,0.79375 l -0.30754,0.597847 0.15152,-0.595313 c 0.20685,-0.812731 -0.0487,-0.748524 -0.52656,0.132292 -0.21711,0.400182 -0.3995,0.591966 -0.40533,0.426186 z"
         id="path3831"
         inkscape:connector-curvature="0" />
      <path
         style="fill:#697355;stroke-width:0.26458338"
         d="m 114.12368,117.48966 -0.50403,-0.59532 0.59531,0.50403 c 0.55945,0.47367 0.71576,0.6866 0.50403,0.6866 -0.0502,0 -0.3181,-0.26789 -0.59531,-0.59531 z m 0.91743,-0.13229 c -0.32911,-0.41965 -0.31975,-0.42901 0.0999,-0.0999 0.25467,0.19971 0.46303,0.40808 0.46303,0.46302 0,0.21776 -0.21728,0.0776 -0.56292,-0.36313 z m -37.007926,-0.69521 c 0,-0.0549 0.208359,-0.2633 0.463022,-0.46302 0.419646,-0.32911 0.429001,-0.31975 0.0999,0.0999 -0.345645,0.44073 -0.562917,0.58089 -0.562917,0.36312 z m 1.455207,-0.69386 c 0.26339,-0.29104 0.538422,-0.52917 0.611183,-0.52917 0.07276,0 -0.08321,0.23813 -0.346599,0.52917 -0.26339,0.29104 -0.538419,0.52917 -0.611183,0.52917 -0.07276,0 0.08321,-0.23813 0.346599,-0.52917 z m 32.783209,-0.59531 -0.50403,-0.59531 0.59531,0.50403 c 0.55944,0.47366 0.71576,0.68659 0.50403,0.68659 -0.0502,0 -0.3181,-0.26789 -0.59531,-0.59531 z m -10.85228,-0.84134 c -0.26344,-0.6865 0.1058,-1.25391 0.75591,-1.16159 0.43729,0.0621 0.5965,0.26125 0.5965,0.74616 0,0.48491 -0.15921,0.68407 -0.5965,0.74616 -0.35779,0.0508 -0.66029,-0.0816 -0.75591,-0.33073 z m 1.08782,-0.41543 c 0,-0.2143 -0.20836,-0.42975 -0.46302,-0.4788 -0.32487,-0.0626 -0.46302,0.0803 -0.46302,0.4788 0,0.3985 0.13815,0.54136 0.46302,0.4788 0.25466,-0.049 0.46302,-0.2645 0.46302,-0.4788 z m -21.298957,-0.13229 c 0.341776,-0.3638 0.68094,-0.66146 0.7537,-0.66146 0.07276,0 -0.147339,0.29766 -0.489117,0.66146 -0.341773,0.3638 -0.680937,0.66145 -0.7537,0.66145 -0.07276,0 0.147341,-0.29765 0.489117,-0.66145 z m -1.322917,0.29698 c 0,-0.0549 0.208362,-0.2633 0.463021,-0.46302 0.419645,-0.32911 0.429004,-0.31975 0.0999,0.0999 -0.345644,0.44073 -0.562917,0.58088 -0.562917,0.36312 z m 30.671654,-0.89229 -0.64144,-0.72761 0.72761,0.64143 c 0.68005,0.59952 0.84894,0.81378 0.64143,0.81378 -0.0474,0 -0.37481,-0.32742 -0.7276,-0.7276 z m 1.57376,0.26458 c -0.32911,-0.41965 -0.31974,-0.429 0.0999,-0.0999 0.25466,0.19972 0.46303,0.40808 0.46303,0.46302 0,0.21776 -0.21728,0.0776 -0.56293,-0.36313 z m -0.79375,-1.05833 c -0.32911,-0.41965 -0.31974,-0.42901 0.0999,-0.0999 0.44073,0.34564 0.58089,0.56291 0.36312,0.56291 -0.0549,0 -0.2633,-0.20836 -0.46302,-0.46302 z m -5.50885,-4.53947 -3.7376,-4.20874 -1.46204,-0.2519 c -0.879403,-0.15151 -1.956222,-0.15838 -2.702088,-0.0172 -0.682022,0.12906 -1.533335,0.20157 -1.891805,0.16116 -0.571127,-0.0644 -0.737137,0.13071 -1.341803,1.57699 -0.379518,0.90777 -0.742979,1.70343 -0.807686,1.76813 -0.06471,0.0647 -0.07394,-0.74787 -0.02053,-1.80574 l 0.09713,-1.9234 -0.801479,-0.33198 c -0.440811,-0.18259 -0.866364,-0.50108 -0.945671,-0.70775 -0.115654,-0.30139 0.02461,-0.2885 0.708592,0.0651 0.797774,0.41243 0.82904,0.41225 0.484637,-0.003 -0.321202,-0.38722 -0.312764,-0.42257 0.06615,-0.27716 0.241491,0.0927 0.434301,0.0366 0.434301,-0.12624 0,-0.16109 0.231095,-0.29289 0.513551,-0.29289 0.28245,0 0.592291,-0.12741 0.688533,-0.28313 0.09624,-0.15571 0.430688,-0.38102 0.74322,-0.50066 0.529635,-0.20276 0.514315,-0.2292 -0.225515,-0.38921 -2.197032,-0.47517 -3.547737,-1.66024 -4.104355,-3.601052 L 91.299299,96.12458 h 6.331534 c 5.451637,0 6.331527,-0.05515 6.331527,-0.396875 0,-0.218281 0.14883,-0.367109 0.33073,-0.330729 0.47367,0.09473 0.32801,-2.473119 -0.20239,-3.567882 -0.37129,-0.766363 -0.37201,-0.805532 -0.006,-0.346943 0.56331,0.706559 0.93316,2.146144 0.93492,3.639089 10e-4,1.189075 0.0536,1.276147 1.1492,1.91823 2.09009,1.224875 2.02727,1.368004 2.02727,-4.619057 v -5.291666 h 1.5875 1.5875 v 1.184714 1.184712 l 1.07037,-1.161209 c 1.41974,-1.540245 2.88584,-1.927963 5.0941,-1.347163 0.84385,0.22194 1.58799,0.403526 1.65365,0.403526 0.23918,0 0.10904,0.68143 -0.34363,1.799358 -0.43786,1.081299 -0.50618,1.132543 -1.25678,0.942586 -1.53636,-0.388813 -3.23353,-0.253902 -4.01753,0.319362 -1.33389,0.975337 -1.74219,2.234584 -1.8794,5.796204 l -0.12387,3.215587 1.24054,0.473768 c 0.68229,0.260568 1.19381,0.520488 1.1367,0.577598 -0.0571,0.0571 -0.80848,-0.17924 -1.66972,-0.525208 -0.86124,-0.345974 -1.86354,-0.708649 -2.22734,-0.805945 -0.58304,-0.155934 -0.60281,-0.140377 -0.1667,0.131221 0.36611,0.228007 0.40945,0.360857 0.16667,0.510905 -0.20697,0.127912 0.2453,0.411557 1.22503,0.768297 1.65897,0.60407 3.02285,1.21961 2.12385,0.95853 -1.87955,-0.54583 -1.76135,-0.63221 -1.76135,1.28718 v 1.74848 h -1.70987 -1.70986 l -0.0761,-2.42521 -0.0761,-2.425201 -1.32292,-0.464706 c -2.03686,-0.715497 -2.19142,-0.673143 -2.3906,0.65509 -0.13225,0.881887 -0.0419,1.459577 0.37595,2.404237 0.57928,1.30956 3.52161,5.92943 4.849,7.6136 0.4301,0.5457 0.72103,0.99219 0.64653,0.99219 -0.0745,0 -0.79578,-0.84982 -1.60282,-1.88848 -1.5008,-1.93153 -2.53952,-2.89037 -2.53952,-2.34425 0,0.16237 -0.13094,0.21428 -0.29098,0.11537 -0.20451,-0.12639 -0.20174,-0.0131 0.009,0.38126 0.33196,0.62029 0.57439,0.74466 0.44902,0.23037 -0.0443,-0.1819 -0.0304,-0.24069 0.0309,-0.13065 0.0613,0.11005 0.25019,0.11696 0.41966,0.0153 0.16947,-0.1016 0.14287,0.019 -0.0591,0.2679 -0.3139,0.38689 -0.31181,0.51916 0.0144,0.91069 0.20989,0.25193 1.012,1.20219 1.78249,2.1117 2.69737,3.18406 1.09681,1.61511 -2.60658,-2.5551 z m -11.474572,-5.36587 c -0.08446,-0.21107 -0.147155,-0.14838 -0.159853,0.15985 -0.01148,0.27891 0.05104,0.43518 0.138967,0.34727 0.08792,-0.0879 0.09732,-0.31613 0.02088,-0.50712 z m 2.922604,-1.96233 c -0.08792,-0.0879 -0.316124,-0.0973 -0.507119,-0.0209 -0.211066,0.0845 -0.148373,0.14716 0.159853,0.15985 0.278913,0.0115 0.435184,-0.0511 0.347266,-0.13896 z m 4.376168,-1.6012 c -0.17913,-0.07247 -0.53632,-0.07688 -0.79375,-0.0098 -0.25743,0.06708 -0.11087,0.126381 0.3257,0.13177 0.43656,0.0054 0.64718,-0.04949 0.46805,-0.121968 z m 8.8909,12.41053 c -0.32911,-0.41964 -0.31974,-0.429 0.0999,-0.0999 0.25466,0.19973 0.46303,0.40808 0.46303,0.46302 0,0.21777 -0.21728,0.0776 -0.56293,-0.36312 z m -25.763119,-1.65365 c 0.263387,-0.29104 0.538421,-0.52916 0.611179,-0.52916 0.07276,0 -0.08321,0.23812 -0.346599,0.52917 -0.26339,0.29104 -0.538421,0.52916 -0.611182,0.52916 -0.07276,0 0.08321,-0.23812 0.346602,-0.52917 z m 1.190625,-1.42281 c 0,-0.0549 0.208356,-0.2633 0.46302,-0.46302 0.419646,-0.3291 0.429001,-0.31975 0.0999,0.0999 -0.345644,0.44073 -0.562917,0.58089 -0.562917,0.36313 z m 13.371107,-1.21236 c -0.971428,-1.07341 0.270775,-2.77101 1.588367,-2.17067 0.82976,0.37806 1.05655,1.24392 0.53449,2.04067 -0.51615,0.78776 -1.474487,0.84644 -2.122857,0.13 z m 1.823537,-0.16185 c 0.49188,-0.49188 0.4961,-0.52725 0.14188,-1.18912 -0.46232,-0.86385 -2.107358,-0.51391 -2.107358,0.44829 0,0.43502 0.742813,1.1566 1.190628,1.1566 0.19749,0 0.54617,-0.18709 0.77485,-0.41577 z m -30.340387,-2.23485 c -3.607269,-0.57051 -7.294675,-2.41938 -8.903364,-4.46418 -3.07749,-3.911778 -3.536438,-9.480683 -1.143751,-13.878338 2.370418,-4.35673 6.43367,-6.365104 12.889731,-6.371109 5.724632,-0.0053 9.211412,1.63529 10.998218,5.17493 0.426659,0.845204 0.775739,1.642756 0.775739,1.772333 0,0.194654 -2.46779,0.837824 -3.214669,0.837824 -0.118798,0 -0.509809,-0.579805 -0.868905,-1.288452 -0.359103,-0.708649 -1.021402,-1.598517 -1.471779,-1.977485 -1.89208,-1.59208 -6.564764,-2.227806 -9.930712,-1.351088 -1.448519,0.377292 -4.092265,1.79626 -4.093722,2.197212 -3.44e-4,0.09397 -0.357424,0.587571 -0.793517,1.096894 -1.20095,1.402617 -1.716672,3.191055 -1.716672,5.953128 0,3.224762 0.578178,4.848751 2.360993,6.631569 3.348767,3.348762 9.972794,3.846902 15.276848,1.148842 1.129022,-0.574307 1.173466,-0.713451 1.057798,-3.311591 l -0.08705,-1.955279 h -4.146286 -4.146284 v -1.299199 -1.2992 l 5.027082,-0.09823 c 3.769839,-0.07367 5.308309,-0.0072 6.151565,0.265737 l 1.12448,0.363966 v 4.181676 4.18168 l -2.325336,1.20098 c -1.278935,0.66055 -3.213701,1.44753 -4.299476,1.74885 -2.276963,0.63189 -6.316379,0.88719 -8.520931,0.53853 z m 52.187417,-0.61976 -1.45521,-0.5985 -0.0699,-8.252017 -0.0699,-8.252013 h 1.72356 1.72356 v 1.056582 1.05659 l 1.17897,-0.89993 c 1.5602,-1.190924 2.80056,-1.579822 5.03874,-1.579822 2.38661,0 3.64837,0.443077 4.94002,1.73472 l 1.04229,1.042299 0.96416,-0.846537 c 1.51217,-1.327705 3.10068,-1.912218 5.22436,-1.922378 3.11252,-0.0149 4.98814,0.87861 5.93042,2.825107 0.51637,1.066676 0.55188,1.585759 0.55188,8.067945 v 6.927924 h -1.70686 -1.70686 l -0.0791,-6.595843 c -0.0739,-6.162966 -0.11458,-6.643343 -0.61995,-7.319613 -1.55966,-2.087089 -5.56305,-1.668343 -7.3723,0.771123 -0.51854,0.699169 -0.55853,1.13773 -0.63323,6.945313 l -0.0797,6.19902 h -1.8385 -1.83848 l -0.004,-6.416146 c -0.004,-6.900841 -0.063,-7.246567 -1.40085,-8.239945 -1.06647,-0.791853 -3.40794,-0.73148 -4.94801,0.12758 -2.03965,1.137727 -2.22526,1.815549 -2.37849,8.686138 -0.0806,3.613003 -0.23572,5.960773 -0.39688,6.006243 -0.14553,0.0411 -0.91943,-0.19467 -1.71979,-0.52384 z m -33.337508,-0.005 c 0,-0.0549 0.20836,-0.2633 0.463021,-0.46302 0.419645,-0.32911 0.429003,-0.31975 0.0999,0.0999 -0.345644,0.44071 -0.562917,0.58087 -0.562917,0.36311 z m -1.545725,-8.631363 c 0,-0.363802 0.06006,-0.51263 0.133454,-0.330729 0.0734,0.181901 0.0734,0.479557 0,0.661458 -0.0734,0.181901 -0.133454,0.03307 -0.133454,-0.330729 z m 3.397809,-2.170118 c 0,-0.788233 0.915921,-2.208001 1.889611,-2.929078 1.79042,-1.325914 4.915075,-1.089398 6.736163,0.509887 0.60033,0.527206 1.36879,2.355858 1.10209,2.622561 -0.0898,0.08977 -2.315266,0.229692 -4.945542,0.310943 l -4.782322,0.14773 z m 10.745744,-3.959032 c -1.23711,-1.224084 -1.47967,-1.863238 -0.27905,-0.735311 l 0.57892,0.543872 1.81938,-1.374532 c 1.00066,-0.755991 2.90877,-2.310421 4.24026,-3.454288 2.27403,-1.953617 3.00309,-2.401434 3.00309,-1.844659 0,0.129305 -1.27993,1.425297 -2.84429,2.879981 -1.56434,1.454687 -3.32052,3.249115 -3.9026,3.987623 -0.58208,0.738508 -1.11786,1.327835 -1.19062,1.309619 -0.0728,-0.0182 -0.71405,-0.608754 -1.42509,-1.312305 z m 8.03655,-6.027443 c 0.002,-0.06493 -0.38382,0.246715 -0.85677,0.692538 -0.47294,0.445821 -1.15755,1.057275 -1.52136,1.358784 -0.3638,0.301509 -0.9201,0.769718 -1.23622,1.040466 -0.31612,0.270746 -1.28754,1.011322 -2.15871,1.645724 -1.36859,0.996635 -1.54356,1.218123 -1.2869,1.629098 0.26411,0.42291 0.67175,0.102907 3.67694,-2.886461 1.85894,-1.849155 3.3813,-3.415222 3.38302,-3.480149 z m -41.536463,4.185139 c -0.599993,-0.240369 -0.617915,-0.289494 -0.192873,-0.528659 0.257722,-0.145012 0.406386,-0.364304 0.330364,-0.487309 -0.07602,-0.123008 0.101923,-0.160848 0.395434,-0.08409 0.29351,0.07675 0.606241,0.257 0.694957,0.400542 0.09746,0.1577 -0.05244,0.193156 -0.378732,0.08959 -0.297019,-0.09427 -0.616612,-0.0475 -0.710207,0.103944 -0.0936,0.151442 0.0084,0.275346 0.226702,0.275346 0.218281,0 0.47046,0.119063 0.560397,0.264584 0.199882,0.323416 -0.05756,0.313978 -0.926042,-0.03395 z m 27.538716,-0.590285 c 0.316027,-0.272534 1.565453,-0.411848 1.565453,-0.174554 0,0.148294 -0.377032,0.269624 -0.837848,0.269624 -0.460815,0 -0.788237,-0.04278 -0.727605,-0.09507 z"
         id="path3829"
         inkscape:connector-curvature="0" />
      <path
         style="fill:#525c38;stroke-width:0.26458338"
         d="m 101.4122,114.51309 c -0.23374,-0.6091 0.0944,-1.19062 0.67194,-1.19062 0.53698,0 0.98021,0.84944 0.68905,1.32055 -0.25177,0.40738 -1.18915,0.3179 -1.36099,-0.12993 z m 1.09494,-0.39687 c 0,-0.2143 -0.20836,-0.42975 -0.46302,-0.4788 -0.32487,-0.0626 -0.46302,0.0803 -0.46302,0.4788 0,0.3985 0.13815,0.54136 0.46302,0.4788 0.25466,-0.049 0.46302,-0.2645 0.46302,-0.4788 z m 6.44854,-2.57969 c -0.32911,-0.41964 -0.31974,-0.429 0.0999,-0.0999 0.25466,0.19973 0.46303,0.40808 0.46303,0.46302 0,0.21777 -0.21728,0.0776 -0.56293,-0.36312 z m -1.83836,-2.11666 -0.64143,-0.72761 0.7276,0.64143 c 0.68006,0.59952 0.84895,0.81378 0.64144,0.81378 -0.0474,0 -0.37482,-0.32742 -0.72761,-0.7276 z m -7.816609,-2.32595 c -0.352755,-0.53837 -0.381452,-0.8019 -0.144063,-1.32292 0.163045,-0.35784 0.426562,-0.65062 0.585597,-0.65062 0.159036,0 0.102056,0.1871 -0.126619,0.41578 -0.509195,0.5092 -0.525086,0.92109 -0.06007,1.55705 0.462634,0.63268 1.565504,0.38247 1.964634,-0.44572 0.15932,-0.33059 0.29774,-0.45223 0.30758,-0.27033 0.0271,0.50131 -0.97209,1.38906 -1.56349,1.38906 -0.287687,0 -0.721294,-0.30253 -0.963573,-0.6723 z m 4.443719,-1.43374 c -1.32183,-1.47637 -1.84397,-1.87438 -2.63362,-2.00748 -1.99881,-0.33693 -2.038881,-0.39779 -0.67794,-1.02971 1.20151,-0.55788 2.88938,-2.1274 3.48533,-3.240934 0.24788,-0.463174 0.14329,-0.489865 -1.70309,-0.434647 -1.53211,0.04582 -2.14595,0.186129 -2.775511,0.634413 -1.248391,0.888938 -3.817498,1.012548 -5.37491,0.258619 -1.343893,-0.650568 -2.19293,-1.661033 -2.441977,-2.906276 l -0.164483,-0.82242 6.775137,0.0218 c 4.021824,0.01294 6.838984,0.125121 6.932244,0.276021 0.24205,0.39165 2.67977,1.564585 2.86557,1.378797 0.0905,-0.09047 0.16451,-2.525911 0.16451,-5.412073 v -5.247572 h 1.5875 1.5875 v 1.250908 1.25091 l 0.81755,-0.991846 c 0.44967,-0.545513 1.188,-1.183399 1.64075,-1.417521 1.03591,-0.535699 3.23087,-0.529698 4.52823,0.01238 1.0704,0.447238 1.09407,0.682257 0.23811,2.364015 -0.27318,0.536733 -0.50741,0.699296 -0.82638,0.573521 -0.24482,-0.09654 -1.04046,-0.236627 -1.76805,-0.311306 -1.09249,-0.112125 -1.48422,-0.02707 -2.24896,0.488304 -1.54399,1.04053 -1.96305,2.25093 -2.07476,5.992591 -0.0865,2.897483 -0.14556,3.239349 -0.53262,3.083152 -2.80065,-1.130199 -3.25027,-1.25163 -3.54457,-0.957331 -0.46714,0.467143 0.19203,0.974595 2.1832,1.680695 l 1.71979,0.60987 0.0777,1.91708 0.0777,1.91708 h -1.73139 -1.73139 v -2.32245 c 0,-2.460724 -0.25247,-3.00848 -1.46218,-3.172165 -0.2872,-0.03886 -0.89192,-0.140941 -1.3438,-0.226843 -0.70363,-0.133755 -0.84558,-0.06662 -0.98857,0.467535 -0.44016,1.644243 -0.039,2.925213 1.85232,5.915383 0.88487,1.39895 0.97586,1.62552 0.37188,0.92604 -0.43979,-0.50932 -0.86941,-1.13346 -0.95472,-1.38698 -0.14118,-0.41957 -0.22292,-0.42586 -0.91094,-0.0701 -0.58279,0.30138 -0.78609,0.31605 -0.88799,0.0641 -0.0937,-0.23165 -0.13822,-0.23641 -0.15302,-0.0164 -0.0115,0.17074 0.24982,0.64699 0.58069,1.05834 1.88223,2.34002 1.61898,2.26056 -0.55492,-0.16751 z m 1.54084,-1.49432 c 0,-0.21898 -0.51375,-0.3428 -0.63154,-0.15222 -0.0764,0.12364 0.0344,0.2248 0.2463,0.2248 0.21188,0 0.38524,-0.0327 0.38524,-0.0726 z m -11.377084,0.8485 c 0,-1.72554 0.01879,-1.77595 0.595312,-1.59873 0.327422,0.10065 0.629441,0.21226 0.671155,0.24802 0.08293,0.0711 -0.977839,2.84353 -1.156327,3.02219 -0.06058,0.0606 -0.11014,-0.69153 -0.11014,-1.67148 z m 7.149054,0.50929 c -0.20869,-0.25145 -0.22876,-0.40327 -0.0533,-0.40327 0.31976,0 0.69257,0.50197 0.50909,0.68546 -0.0666,0.0666 -0.27169,-0.0604 -0.45577,-0.28219 z m -28.977181,-0.56274 c -5.643565,-0.77005 -9.42657,-2.91829 -11.344488,-6.442136 -1.504193,-2.763698 -1.846076,-5.960169 -0.987324,-9.231091 1.570867,-5.983307 6.192057,-9.070742 13.654728,-9.122776 6.483548,-0.04521 10.52046,2.196867 11.878807,6.59741 0.146592,0.47489 0.04155,0.582489 -0.693653,0.710544 -0.47652,0.083 -1.246145,0.231553 -1.710266,0.330123 -0.776992,0.165016 -0.873969,0.107181 -1.223675,-0.729784 -0.594823,-1.423617 -1.903931,-2.731254 -3.420641,-3.4168 -1.235258,-0.558333 -1.776072,-0.628723 -4.830572,-0.628723 -3.341366,0 -3.489605,0.02447 -5.191366,0.857111 -1.934659,0.946587 -3.311193,2.392974 -4.27619,4.493181 -0.486332,1.058447 -0.580914,1.738151 -0.580914,4.17471 0,2.470179 0.09153,3.110523 0.605123,4.233333 1.292896,2.826525 3.964915,4.605418 7.817251,5.204328 3.099081,0.4818 7.018188,-0.28961 9.640402,-1.89756 l 0.870555,-0.533829 -0.07681,-2.180219 -0.0768,-2.18022 -4.167188,-0.07286 -4.167188,-0.07287 v -1.295183 -1.295186 l 4.960938,-0.0904 c 3.660082,-0.0667 5.255797,0.0037 6.085417,0.268441 l 1.124479,0.358844 v 4.058155 4.058157 l -0.790549,0.56292 c -1.260705,0.8977 -4.484272,2.28537 -6.353201,2.7349 -1.818271,0.43734 -5.415044,0.72921 -6.746875,0.54748 z m 50.932301,-0.72976 c -0.80037,-0.32923 -1.42544,-0.68055 -1.38906,-0.78072 0.0364,-0.10017 0.0661,-3.813533 0.0661,-8.251918 V 87.12872 h 1.45521 1.45521 v 1.058331 c 0,0.582086 0.0665,1.058336 0.14781,1.058336 0.0813,0 0.5873,-0.352465 1.12447,-0.783257 1.37757,-1.104759 3.05314,-1.626674 5.26205,-1.639043 2.34664,-0.01315 4.51344,0.857128 5.25354,2.110023 l 0.4755,0.804958 1.16539,-1.025811 c 3.12248,-2.748521 8.91698,-2.515008 10.91291,0.439777 0.65981,0.976802 0.66166,0.997151 0.74315,8.209209 l 0.0817,7.229977 h -1.73534 -1.73535 l -0.004,-6.416146 c -0.004,-6.90486 -0.0625,-7.246731 -1.40547,-8.242723 -1.04902,-0.777989 -3.58726,-0.749112 -5.1355,0.05842 -2.02085,1.054026 -2.18639,1.707962 -2.18639,8.636778 v 5.963661 h -1.85208 -1.85208 v -6.310514 c 0,-3.817501 -0.11235,-6.632794 -0.28438,-7.12629 -0.94666,-2.715577 -6.27132,-2.336517 -7.85555,0.559231 -0.38499,0.703702 -0.48037,1.817127 -0.59132,6.9029 -0.0807,3.701223 -0.23539,6.092953 -0.39688,6.138533 -0.14552,0.0411 -0.91943,-0.1947 -1.71979,-0.52392 z M 91.526936,93.638478 c 0,-0.913587 0.771892,-2.232824 1.737267,-2.969151 0.91096,-0.694822 1.189315,-0.762482 3.136929,-0.762482 1.863744,0 2.249263,0.084 3.012437,0.656365 0.481346,0.361001 0.745231,0.69968 0.586415,0.752618 -0.158816,0.05294 -0.493112,-0.06383 -0.742881,-0.25949 -0.413824,-0.324173 -0.420415,-0.312862 -0.07426,0.127442 0.325729,0.41433 0.326819,0.515969 0.0077,0.713216 -0.204711,0.126521 -0.292018,0.310214 -0.194025,0.40821 0.098,0.098 0.0042,0.352192 -0.208528,0.564885 -0.212688,0.212688 -0.319059,0.496168 -0.236371,0.62996 0.08714,0.141004 -0.841642,0.243253 -2.209599,0.243253 -1.297967,0 -2.912332,0.07572 -3.587491,0.168253 -1.036989,0.142135 -1.227563,0.09974 -1.227563,-0.273079 z m 11.431824,-3.673369 -0.56668,-0.603197 0.5867,-0.36535 c 0.53611,-0.333851 0.55539,-0.327472 0.22357,0.07403 -0.29648,0.358743 -0.30084,0.514437 -0.0238,0.848299 0.18666,0.224907 0.50507,0.345329 0.7076,0.267616 0.20253,-0.07772 0.29549,-0.0236 0.20658,0.120247 -0.24659,0.398989 -0.51388,0.318466 -1.13402,-0.341637 z m 3.51713,-2.571808 c 1.01084,-1.018643 1.89743,-1.852081 1.97019,-1.852081 0.0728,0 -0.69477,0.833438 -1.70561,1.852081 -1.01084,1.018648 -1.89742,1.852086 -1.97018,1.852086 -0.0728,0 0.69476,-0.833438 1.7056,-1.852086 z m -1.71979,0.429273 c 0,-0.05494 0.20836,-0.2633 0.46302,-0.463021 0.41964,-0.329107 0.429,-0.319749 0.0999,0.0999 -0.34565,0.44073 -0.56292,0.580888 -0.56292,0.363125 z m -7.866317,-0.87721 c 0.257432,-0.06708 0.614619,-0.06267 0.79375,0.0098 0.179131,0.07248 -0.03149,0.127362 -0.468056,0.12197 -0.436565,-0.0054 -0.583125,-0.06469 -0.325694,-0.131773 z m 9.453817,-0.478102 c 0.34177,-0.363802 0.68094,-0.661461 0.7537,-0.661461 0.0728,0 -0.14734,0.297659 -0.48912,0.661461 -0.34177,0.363802 -0.68094,0.661458 -0.7537,0.661458 -0.0728,0 0.14734,-0.297656 0.48912,-0.661458 z m 1.7198,-1.455211 c 0.26339,-0.291039 0.53842,-0.529164 0.61118,-0.529164 0.0728,0 -0.0832,0.238125 -0.3466,0.529164 -0.26339,0.291044 -0.53843,0.529169 -0.61119,0.529169 -0.0728,0 0.0832,-0.238125 0.34661,-0.529169 z m 0.99276,-0.15376 c 0.25498,-0.30285 0.40428,-0.60996 0.33178,-0.682464 -0.0725,-0.0725 0.19512,-0.420031 0.59473,-0.77228 l 0.72656,-0.640453 -0.59773,0.681087 c -0.32875,0.374598 -0.53638,0.742439 -0.4614,0.817419 0.075,0.07498 -0.13229,0.36381 -0.4606,0.641829 -0.59673,0.505325 -0.59677,0.505312 -0.13334,-0.04514 z"
         id="path3827"
         inkscape:connector-curvature="0" />
      <path
         style="fill:#4c5048;stroke-width:0.26458338"
         d="m 101.4122,114.51309 c -0.23374,-0.6091 0.0944,-1.19062 0.67194,-1.19062 0.53698,0 0.98021,0.84944 0.68905,1.32055 -0.25177,0.40738 -1.18915,0.3179 -1.36099,-0.12993 z m 1.09494,-0.39687 c 0,-0.2143 -0.20836,-0.42975 -0.46302,-0.4788 -0.32487,-0.0626 -0.46302,0.0803 -0.46302,0.4788 0,0.3985 0.13815,0.54136 0.46302,0.4788 0.25466,-0.049 0.46302,-0.2645 0.46302,-0.4788 z m -3.206429,-7.0223 c -0.352755,-0.53837 -0.381452,-0.8019 -0.144063,-1.32291 0.163045,-0.35784 0.426562,-0.65062 0.585597,-0.65062 0.159036,0 0.102056,0.18709 -0.126619,0.41577 -0.509195,0.5092 -0.525086,0.92109 -0.06007,1.55705 0.462634,0.63268 1.565504,0.38247 1.964634,-0.44572 0.15932,-0.33058 0.29774,-0.45223 0.30758,-0.27033 0.0271,0.50131 -0.97209,1.38906 -1.56349,1.38906 -0.287687,0 -0.721294,-0.30253 -0.963573,-0.6723 z m 4.443719,-1.43374 c -1.32183,-1.47637 -1.84397,-1.87438 -2.63362,-2.00748 -2.004133,-0.33782 -2.040966,-0.39516 -0.67794,-1.05543 1.5233,-0.73789 2.4029,-1.50566 3.19663,-2.790185 l 0.58557,-0.947676 -1.91229,0.07347 c -1.43261,0.05504 -2.23881,0.242986 -3.213915,0.749239 -2.686389,1.394712 -5.800664,0.605872 -6.989231,-1.770366 -0.33986,-0.679461 -0.539443,-1.362374 -0.443521,-1.517582 0.22578,-0.365315 13.283537,-0.350205 13.509637,0.01564 0.24195,0.391486 2.67969,1.564299 2.86543,1.378572 0.0905,-0.09049 0.16451,-2.525927 0.16451,-5.412089 v -5.247569 h 1.5875 1.5875 v 1.250911 1.250907 l 0.81755,-0.991846 c 0.44967,-0.545513 1.188,-1.183396 1.64075,-1.417521 1.03591,-0.535697 3.23087,-0.529698 4.52823,0.01238 1.0704,0.447238 1.09407,0.682254 0.23811,2.364015 -0.27318,0.536733 -0.50741,0.699296 -0.82638,0.573521 -0.24482,-0.09654 -1.04046,-0.236627 -1.76805,-0.311306 -1.09249,-0.112128 -1.48422,-0.02707 -2.24896,0.488304 -1.53928,1.03736 -1.96314,2.254139 -2.07367,5.953041 l -0.0962,3.219275 -1.72218,-0.648224 c -1.10585,-0.416237 -1.92484,-0.579025 -2.2885,-0.454872 -0.31148,0.106339 -0.66448,0.166804 -0.78444,0.134369 -0.11995,-0.03244 -0.1378,0.07096 -0.0396,0.229764 0.0982,0.158808 0.24201,0.22519 0.31968,0.147516 0.0777,-0.07768 0.439,0.09299 0.80294,0.37927 0.36394,0.286276 0.77242,0.520501 0.90772,0.520501 0.1353,0 0.8336,0.252781 1.55182,0.561751 l 1.30582,0.56175 v 1.8195 1.8195 h -1.7198 -1.7198 v -2.32245 c 0,-2.460728 -0.25247,-3.008487 -1.46218,-3.172169 -0.2872,-0.03886 -0.89192,-0.140941 -1.3438,-0.226843 -0.70363,-0.133755 -0.84558,-0.06662 -0.98857,0.467535 -0.42454,1.585907 -0.0314,2.933707 1.6058,5.505017 0.61576,0.96708 0.74489,1.29864 0.37808,0.97079 -0.30639,-0.27386 -0.62737,-0.71941 -0.71328,-0.99011 -0.14491,-0.45657 -0.21241,-0.46313 -0.9328,-0.0906 -0.7943,0.41075 -0.9725,0.76485 -0.52431,1.04184 0.28025,0.17321 1.4273,1.72741 1.27488,1.72741 -0.053,0 -0.83829,-0.82866 -1.74507,-1.84146 z m 1.54084,-1.49432 c 0,-0.21898 -0.51375,-0.3428 -0.63154,-0.15222 -0.0764,0.12364 0.0344,0.2248 0.2463,0.2248 0.21188,0 0.38524,-0.0327 0.38524,-0.0726 z m -11.377084,0.8485 c 0,-1.72554 0.01879,-1.77595 0.595312,-1.59873 0.327422,0.10065 0.629441,0.21226 0.671155,0.24802 0.08293,0.0711 -0.977839,2.84353 -1.156327,3.02219 -0.06058,0.0606 -0.11014,-0.69153 -0.11014,-1.67148 z m 7.149054,0.50929 c -0.20869,-0.25145 -0.22876,-0.40327 -0.0533,-0.40327 0.31976,0 0.69257,0.50197 0.50909,0.68546 -0.0666,0.0666 -0.27169,-0.0604 -0.45577,-0.28219 z m -28.977181,-0.56274 c -5.643565,-0.77005 -9.42657,-2.91829 -11.344488,-6.442136 -0.885337,-1.626656 -1.487804,-3.991952 -1.487804,-5.841141 0,-1.779627 0.778114,-4.897982 1.547614,-6.202187 2.546936,-4.316738 6.444426,-6.267566 12.607594,-6.310539 6.483548,-0.04521 10.52046,2.196867 11.878807,6.59741 0.146592,0.47489 0.04155,0.582489 -0.693653,0.710544 -0.47652,0.083 -1.246145,0.231553 -1.710266,0.330123 -0.776992,0.165016 -0.873969,0.107181 -1.223675,-0.729784 -0.594823,-1.423617 -1.903931,-2.731254 -3.420641,-3.4168 -1.235258,-0.558333 -1.776072,-0.628723 -4.830572,-0.628723 -3.344234,0 -3.48835,0.02386 -5.198768,0.860644 -2.012821,0.984731 -3.183098,2.188559 -4.167187,4.286657 -0.611402,1.303525 -0.687894,1.792108 -0.685363,4.377701 0.0024,2.466324 0.09518,3.112278 0.607971,4.233333 1.292896,2.826525 3.964915,4.605418 7.817251,5.204328 3.099081,0.4818 7.018188,-0.28961 9.640402,-1.89756 l 0.870555,-0.533829 -0.07681,-2.180219 -0.0768,-2.18022 -4.167188,-0.07286 -4.167188,-0.07287 v -1.304398 -1.304401 l 4.696355,-0.07794 c 3.383301,-0.05615 5.084723,0.02484 6.085416,0.289655 l 1.389063,0.367596 v 4.046157 4.046159 l -0.790549,0.56292 c -1.260705,0.8977 -4.484272,2.28537 -6.353201,2.7349 -1.818271,0.43734 -5.415044,0.72921 -6.746875,0.54749 z m 50.800011,-0.9063 -1.32292,-0.50904 0.0735,-8.208422 0.0735,-8.208428 h 1.44783 1.44783 v 1.058334 c 0,0.582083 0.0665,1.058333 0.14781,1.058333 0.0813,0 0.5873,-0.352465 1.12447,-0.783257 1.37757,-1.104759 3.05314,-1.626674 5.26205,-1.639043 2.34664,-0.01315 4.51344,0.857128 5.25354,2.110023 l 0.4755,0.804958 1.16539,-1.025811 c 3.12248,-2.748518 8.91698,-2.515008 10.91291,0.439777 0.65981,0.976805 0.66166,0.997151 0.74315,8.209209 l 0.0817,7.229977 h -1.73534 -1.73535 l -0.004,-6.416146 c -0.004,-6.904857 -0.0625,-7.246731 -1.40547,-8.242723 -1.04902,-0.777989 -3.58726,-0.749112 -5.1355,0.05842 -2.02085,1.054026 -2.18639,1.707962 -2.18639,8.636778 v 5.963661 h -1.85208 -1.85208 v -6.310514 c 0,-3.817501 -0.11235,-6.632794 -0.28438,-7.12629 -1.0882,-3.121586 -7.18638,-2.073151 -8.15097,1.40136 -0.17064,0.614659 -0.29357,3.347453 -0.29443,6.545345 -0.002,6.226889 0.15615,5.879509 -2.25043,4.953499 z M 91.526936,93.465581 c 0,-0.486061 0.839149,-1.921822 1.421865,-2.432775 1.841323,-1.614553 5.44939,-1.67264 6.746468,-0.108614 0.423551,0.510723 0.04775,0.59191 -0.495885,0.107132 -0.317661,-0.283268 -0.318204,-0.261392 -0.0038,0.152456 0.313473,0.412602 0.31273,0.516792 -0.0051,0.713216 -0.204711,0.126521 -0.292021,0.310214 -0.194025,0.40821 0.098,0.098 0.0042,0.352192 -0.208531,0.564885 -0.212688,0.212688 -0.319056,0.496168 -0.236368,0.62996 0.08862,0.14338 -1.322584,0.243253 -3.437144,0.243253 -2.328423,0 -3.587491,-0.09747 -3.587491,-0.277723 z M 104.7561,87.822574 c 0,-0.05494 0.20836,-0.2633 0.46302,-0.463021 0.41964,-0.329107 0.429,-0.319749 0.0999,0.0999 -0.34565,0.440732 -0.56292,0.58089 -0.56292,0.363128 z"
         id="path3825"
         inkscape:connector-curvature="0" />
      <path
         style="fill:#070706;stroke-width:0.26458338"
         d="m 94.023192,105.51726 c 0.07906,-0.58208 0.145063,-1.26669 0.146664,-1.52136 0.0016,-0.25465 0.190966,-0.46301 0.420812,-0.46301 0.332959,0 0.380367,0.17477 0.233248,0.85989 -0.10156,0.47295 -0.35561,1.15755 -0.564565,1.52135 -0.368369,0.64136 -0.375544,0.6293 -0.236159,-0.39687 z M 69.37943,104.45682 c -5.376893,-1.16851 -9.109143,-4.93468 -9.894988,-9.984899 -0.760927,-4.890085 1.888187,-10.485305 5.940257,-12.546474 4.236291,-2.154877 11.482913,-2.265876 15.486293,-0.237209 2.170983,1.100121 4.894768,4.710187 4.096065,5.428867 -0.24597,0.221324 -2.761652,0.879152 -2.872494,0.751131 -0.03717,-0.04293 -0.308377,-0.555868 -0.602676,-1.139862 -1.107977,-2.198603 -2.754307,-3.275052 -5.862012,-3.832866 -2.03626,-0.365497 -4.288126,-0.165526 -6.632525,0.588985 -1.396845,0.449554 -1.999163,0.838498 -3.207531,2.071248 -1.90447,1.942893 -2.613302,3.852172 -2.613302,7.039065 0,5.913408 3.308967,9.135264 9.789583,9.531864 2.661422,0.16288 5.055515,-0.31817 7.580193,-1.52308 l 1.680223,-0.8019 V 97.433955 95.06622 H 78.033184 73.79985 v -1.322916 -1.322917 h 5.119894 c 3.035032,0 5.459192,0.118279 5.953127,0.290468 l 0.833231,0.290464 v 4.165402 4.165399 l -1.389065,0.76965 c -3.678274,2.03807 -6.497959,2.76502 -10.60063,2.733 -1.482075,-0.0116 -3.433715,-0.18164 -4.336977,-0.37795 z m 38.81626,-2.27516 c 0,-1.81446 0.0817,-2.380284 0.33073,-2.291043 0.1819,0.06518 0.95581,0.339563 1.71979,0.609743 l 1.38907,0.49123 v 1.79981 1.79982 h -1.7198 -1.71979 z m 14.81667,1.92791 -1.19063,-0.45928 -0.0699,-8.260781 -0.0699,-8.260789 h 1.45898 1.45898 v 1.190625 c 0,1.262745 0.21611,1.488078 0.69372,0.723313 0.16051,-0.257022 0.92873,-0.813954 1.70715,-1.237623 1.10705,-0.602533 1.84972,-0.795229 3.40983,-0.884727 2.7,-0.15489 4.10305,0.262959 5.46876,1.628664 l 1.1021,1.102101 0.88683,-0.751846 c 0.48775,-0.413512 1.36307,-0.999863 1.94515,-1.303001 1.34934,-0.70271 4.42371,-0.932757 6.11967,-0.457917 1.56612,0.438488 3.12089,1.900515 3.50688,3.297703 0.17685,0.640154 0.29296,3.64581 0.29385,7.606768 l 10e-4,6.54844 h -1.7198 -1.71979 v -6.469843 c 0,-4.033636 -0.10644,-6.698691 -0.28267,-7.077604 -0.46144,-0.992105 -1.55945,-1.621732 -3.04267,-1.744734 -2.66843,-0.221284 -4.60443,0.950476 -5.26926,3.189224 -0.30109,1.013873 -0.40123,2.692842 -0.40123,6.727018 v 5.375939 h -1.5875 -1.5875 l -0.0203,-6.019271 c -0.013,-3.858921 -0.13418,-6.396979 -0.33754,-7.071651 -1.06256,-3.525255 -7.36542,-2.746343 -8.41377,1.039779 -0.16309,0.589015 -0.3339,3.511716 -0.37957,6.494893 -0.0642,4.19465 -0.16095,5.43641 -0.42685,5.47892 -0.1891,0.0302 -0.87959,-0.15172 -1.53444,-0.40432 z m -20.45483,0.034 c -0.093,-0.15044 -0.72266,-0.42853 -1.39929,-0.61797 l -1.230246,-0.34445 0.892696,-0.45884 c 1.02965,-0.52923 1.96863,-1.36542 2.80363,-2.49673 l 0.58585,-0.793747 0.008,1.378757 c 0.006,1.03368 -0.12075,1.49906 -0.50756,1.85942 -0.28376,0.26437 -0.62134,0.76562 -0.75017,1.11388 -0.12884,0.34826 -0.31031,0.51012 -0.40329,0.35968 z m 7.29474,-5.368864 -1.65072,-0.665789 -0.003,-5.490105 -0.003,-5.490104 h 1.45521 1.45521 v 1.190625 c 0,1.393468 0.27632,1.495113 1.0626,0.390885 1.14383,-1.606362 3.66584,-2.273377 5.84323,-1.545402 1.32022,0.441399 1.36066,0.544764 0.75171,1.921402 -0.43402,0.981167 -0.65351,1.216649 -0.9981,1.070797 -1.04754,-0.443386 -3.09156,-0.409675 -3.99545,0.0659 -1.51572,0.797478 -1.9768,2.074408 -2.13252,5.905961 l -0.1346,3.311622 z M 92.635431,98.606083 c -0.190693,-0.207213 -0.519713,-0.790797 -0.731155,-1.29685 l -0.384442,-0.920096 h 1.023911 c 0.955003,0 1.022014,0.05055 0.995738,0.751152 -0.02304,0.614283 -0.124592,0.726448 -0.557339,0.615577 -0.462777,-0.118568 -0.484537,-0.08114 -0.173424,0.298283 0.451419,0.550551 0.29218,1.057733 -0.173289,0.551934 z m 12.328799,-0.05279 c -0.32754,-0.129987 -0.38373,-0.290015 -0.20249,-0.576721 0.13796,-0.218244 0.25267,-0.670258 0.25489,-1.004474 0.004,-0.59554 0.0165,-0.59825 0.62985,-0.135623 0.53365,0.402534 0.58828,0.57967 0.37099,1.202976 -0.26861,0.77053 -0.33043,0.80069 -1.05324,0.513842 z M 91.8051,92.883405 c 0.267914,-0.955024 2.109364,-2.844268 2.772312,-2.844268 0.351944,0 0.319614,0.148048 -0.187777,0.859893 -0.337106,0.472946 -0.613103,0.91943 -0.613331,0.99219 -2.25e-4,0.07276 -0.268301,0.400183 -0.595723,0.727604 -0.327421,0.327422 -0.595312,0.714375 -0.595312,0.859896 0,0.145521 -0.229814,0.264584 -0.510699,0.264584 -0.449262,0 -0.481682,-0.103442 -0.26947,-0.859899 z"
         id="path3823"
         inkscape:connector-curvature="0" />
      <path
         inkscape:connector-curvature="0"
         id="path3853"
         d="m 123.08197,104.03718 -1.13589,-0.40208 v -5.013885 c 0,-2.757638 -0.0786,-6.476026 -0.17471,-8.263083 l -0.17471,-3.249197 h 1.51106 1.51105 v 1.202714 c 0,1.338627 0.20891,1.475668 0.96084,0.630293 1.03891,-1.16803 2.99768,-1.827573 5.43606,-1.830396 2.52568,-0.0029 3.90432,0.485265 5.20538,1.843281 l 0.74553,0.778169 1.37646,-1.047055 c 1.69285,-1.287727 2.65985,-1.573604 5.32933,-1.575514 2.9053,-0.0021 4.75772,1.017807 5.52462,3.04169 0.16429,0.433586 0.36639,3.74002 0.46149,7.550364 l 0.1692,6.778969 h -1.78004 -1.78004 v -6.622264 c 0,-5.68978 -0.0614,-6.709886 -0.43583,-7.244511 -1.00202,-1.430584 -3.92878,-1.805044 -5.98882,-0.766226 -0.91482,0.461317 -1.34724,0.912551 -1.85687,1.937703 -0.63269,1.272664 -0.66914,1.607005 -0.76485,7.015826 l -0.1005,5.679472 h -1.40461 -1.4046 l -0.12192,-6.360073 c -0.13518,-7.052119 -0.25621,-7.577944 -1.95479,-8.492685 -1.18556,-0.638469 -3.77934,-0.432065 -4.98518,0.396703 -1.97158,1.355055 -2.33683,2.745716 -2.35779,8.977034 -0.0117,3.483981 -0.19929,5.497351 -0.50849,5.457921 -0.091,-0.0116 -0.67664,-0.20203 -1.30138,-0.42317 z"
         style="fill:none;stroke-width:0.26726952" />
      <path
         style="fill:none;stroke-width:0.26726952"
         d="m 123.08197,104.03718 -1.13589,-0.40208 v -5.013885 c 0,-2.757638 -0.0786,-6.476026 -0.17471,-8.263083 l -0.17471,-3.249197 h 1.51106 1.51105 v 1.202714 c 0,1.338627 0.20891,1.475668 0.96084,0.630293 1.03891,-1.16803 2.99768,-1.827573 5.43606,-1.830396 2.52568,-0.0029 3.90432,0.485265 5.20538,1.843281 l 0.74553,0.778169 1.37646,-1.047055 c 1.69285,-1.287727 2.65985,-1.573604 5.32933,-1.575514 2.9053,-0.0021 4.75772,1.017807 5.52462,3.04169 0.16429,0.433586 0.36639,3.74002 0.46149,7.550364 l 0.1692,6.778969 h -1.78004 -1.78004 v -6.622264 c 0,-5.68978 -0.0614,-6.709886 -0.43583,-7.244511 -1.00202,-1.430584 -3.92878,-1.805044 -5.98882,-0.766226 -0.91482,0.461317 -1.34724,0.912551 -1.85687,1.937703 -0.63269,1.272664 -0.66914,1.607005 -0.76485,7.015826 l -0.1005,5.679472 h -1.40461 -1.4046 l -0.12192,-6.360073 c -0.13518,-7.052119 -0.25621,-7.577944 -1.95479,-8.492685 -1.18556,-0.638469 -3.77934,-0.432065 -4.98518,0.396703 -1.97158,1.355055 -2.33683,2.745716 -2.35779,8.977034 -0.0117,3.483981 -0.19929,5.497351 -0.50849,5.457921 -0.091,-0.0116 -0.67664,-0.20203 -1.30138,-0.42317 z"
         id="path4660"
         inkscape:connector-curvature="0" />
      <path
         inkscape:connector-curvature="0"
         id="path4662"
         d="m 123.08197,104.03718 -1.13589,-0.40208 v -5.013885 c 0,-2.757638 -0.0786,-6.476026 -0.17471,-8.263083 l -0.17471,-3.249197 h 1.51106 1.51105 v 1.202714 c 0,1.338627 0.20891,1.475668 0.96084,0.630293 1.03891,-1.16803 2.99768,-1.827573 5.43606,-1.830396 2.52568,-0.0029 3.90432,0.485265 5.20538,1.843281 l 0.74553,0.778169 1.37646,-1.047055 c 1.69285,-1.287727 2.65985,-1.573604 5.32933,-1.575514 2.9053,-0.0021 4.75772,1.017807 5.52462,3.04169 0.16429,0.433586 0.36639,3.74002 0.46149,7.550364 l 0.1692,6.778969 h -1.78004 -1.78004 v -6.622264 c 0,-5.68978 -0.0614,-6.709886 -0.43583,-7.244511 -1.00202,-1.430584 -3.92878,-1.805044 -5.98882,-0.766226 -0.91482,0.461317 -1.34724,0.912551 -1.85687,1.937703 -0.63269,1.272664 -0.66914,1.607005 -0.76485,7.015826 l -0.1005,5.679472 h -1.40461 -1.4046 l -0.12192,-6.360073 c -0.13518,-7.052119 -0.25621,-7.577944 -1.95479,-8.492685 -1.18556,-0.638469 -3.77934,-0.432065 -4.98518,0.396703 -1.97158,1.355055 -2.33683,2.745716 -2.35779,8.977034 -0.0117,3.483981 -0.19929,5.497351 -0.50849,5.457921 -0.091,-0.0116 -0.67664,-0.20203 -1.30138,-0.42317 z"
         style="fill:none;stroke-width:0.26726952" />
    </g>
  </g>
</svg>
